<?xml version="1.0" encoding="UTF-8"?>
<!-- Created with Inkscape (http://www.inkscape.org/) -->
<svg width="1289.8" height="642.61" version="1.1" viewBox="0 0 1289.8 642.61" xml:space="preserve" xmlns="http://www.w3.org/2000/svg"><g transform="matrix(1.3333 0 0 -1.3333 4.2216e-6 748.71)"><g transform="translate(-972.88 55.674)"><path d="m1852.2 409.22c-0.87-8e-3 -1.71 0.329-2.57 0.425-1.2 0.131-2.4-0.2-3.6-0.094-4.06 0.358-21.36 10.03-1.13 25.635 25.2 19.442 18.04-25.868 7.3-25.966" fill="#2c3945"/><path d="m1817.8 416.35c5.35-5.924 15.16-3.868 12.27 10.249-2.11 10.307-21.17-0.39-12.27-10.249" fill="#2c3945"/><path d="m1841.5 402.34c-10.93 0-21.91 3.208-0.09 3.208 21.55 0 11.13-3.208 0.09-3.208" fill="#ffe6d9"/><path d="m1874.8 378.32c-13.46 9.709-25.98 9.492-20.87 34.695l-23.17 1.445c-0.94-18.706 0.28-20.033-7.54-26.946-1.72-1.522-12.7-7.82-12.7-7.82 17.42-15.516 49.25-14.232 64.28-1.374" fill="#fd9c8d"/><path d="m1824.9 449.75c-9.74-35.91 18.04-60.973 33.05-33.244 27.1 50.039-25.13 62.47-33.05 33.244" fill="#fd9c8d"/><path d="m1850.9 460.26c0.82-5.916-3.95-6.65-8.12-6.845-13.18-0.616-19.29-17.812-19.5-23.595-9.96 23.251 10.31 47.834 23.42 42.042 3.92-1.734 3.71-8.008 4.2-11.602" fill="#2c3945"/><path d="m1865.1 432.3c-3.34 1.578-4.63-5.896-5.17-9.622-1.06-7.343 10.42 7.137 5.17 9.622" fill="#fd9c8d"/><path d="m1821.8 439.17c3.64 0.529 2.79-7.012 2.27-10.739-1.03-7.349-8 9.904-2.27 10.739" fill="#fd9c8d"/><path d="m1832.6 433.79c-1.21 0.182-1.48 5.045 1.45 4.605 1.56-0.235 0.52-4.902-1.45-4.605" fill="#382823"/><path d="m1853.3 430.68c1.21-0.181 2.83 4.398-0.11 4.838-1.56 0.235-1.87-4.541 0.11-4.838" fill="#382823"/><path d="m1836.4 443.91c1.88-0.58 1.41-2.472-0.06-2.176-2.07 0.418-2.38 1.388-6.61 0.269-4.64-1.229 0.78 3.719 6.67 1.907" fill="#353b4a"/><path d="m1852.3 441.32c-1.96 0.217-2.23-1.698-0.77-2.027 1.83-0.414 2.72 0.33 6.19-2.386 3.82-2.984 0.69 3.736-5.42 4.413" fill="#353b4a"/><path d="m1839.2 426.07c-0.31-0.355-0.22-0.866 0.18-1.107 3.9-2.36 3.91-0.292 2.66-0.194-4.14 0.327 0.23 1.541 1.34 8.516 0.12 0.733-0.71 0.863-0.88 0.273-0.3-1.028-0.63-4.376-3.3-7.488" fill="#ee795c"/><path d="m1846.9 417.51c0.23 0.052 0.4-0.241 0.22-0.417-9.53-9.691-13.48 2.6-12 1.807 2.33-1.25 6.71-2.492 11.78-1.39" fill="#fff"/><g fill="#ee795c"><path d="m1822.1 435.39c0.15 0.328 0.63 0.091 0.48-0.233-0.91-1.973-0.47-3.275 0.29-3.865 0.12-0.091 0.14-0.262 0.05-0.382-0.58-0.798-2.12 1.66-0.82 4.48"/><path d="m1862.8 424.9c0.88 0.79 0.94 2.221 0.93 3.501 0 0.361 0.53 0.363 0.53 4e-3 0.04-4.801-2.28-4.228-1.46-3.505"/><path d="m1831.5 410.1c7.05-8.014 17.9-5.156 20.9-0.62 1.18 1.768 0.1-4.301-8.91-4.942-9.94-0.707-14.03 7.879-11.99 5.562"/></g><path d="m1842.8 244.93c1.92-37.422 0.76-71.826 5.79-95.874 11.24-53.795 7.45-98.558 7.45-98.558 4.7-4.5383 13.62-3.6012 13.53 0.8168-0.84 40.166 13.01 53.42 5.37 91.913-10.14 51.108 9.98 107.17 8.8 115.08-3.73 25.195-43.43 35.174-40.94-13.381" fill="#fd9c8d"/><path d="m1839.6 133.81c5.1-29.543-0.7-48.094-1.54-85.283-0.12-5.5172-8.72-6.8223-13.49-1.1953 0 0-0.92 45.678-9.42 91.639-9.83 53.162-14.19 109.66-13.88 104.26-1.73 30.603 14.71 37.486 26.4 35.114 32.51-6.595 3.98-98.438 11.93-144.54" fill="#fd9c8d"/><path d="m1769 262.22c-0.04-5.677 0.4-4.878 5.21-7.678 3.26-1.902 7.83-3.565 13.78-0.344 1 0.541 24.32-1.693 27.58 40.358 0.94 12.213-1.42 17.67-2.33 29.886-0.77 10.491 10.4 54.541-5.03 59.176-16.57 4.979-26.24-43.349-27.16-52.942-1.63-16.965-11.88-44.536-12.05-68.456" fill="#ffe6d9"/><path d="m1769.5 262.22c-0.03-4.5 0.08-4.562 3.02-6.156 0.55-0.3 1.19-0.647 1.93-1.081 2.88-1.675 7.38-3.531 13.29-0.337 0.18 0.102 0.43 0.124 1.03 0.178 19.31 1.742 24.95 22.591 26.28 39.774 0.6 7.72-0.13 12.71-0.98 18.489-0.5 3.375-1.01 6.865-1.34 11.321-0.21 2.823 0.43 8.053 1.18 14.108 2.02 16.459 5.08 41.333-5.85 44.62-2.35 0.704-4.68 0.291-6.94-1.226-11.73-7.883-18.74-42.647-19.57-51.279-0.66-6.781-2.71-15.36-4.88-24.442-3.31-13.883-7.07-29.618-7.17-43.969zm11.86-10.349c-3.07 0-5.56 1.153-7.42 2.235-0.73 0.429-1.37 0.772-1.91 1.068-3.22 1.753-3.58 2.111-3.54 7.053 0.1 14.466 3.87 30.262 7.2 44.198 2.16 9.046 4.2 17.592 4.85 24.303 0.84 8.733 7.98 43.94 20.02 52.024 2.52 1.694 5.15 2.149 7.79 1.355 11.75-3.533 8.75-27.913 6.56-45.715-0.73-6.002-1.37-11.186-1.17-13.909 0.33-4.42 0.84-7.891 1.33-11.249 0.86-5.839 1.6-10.881 0.99-18.714-1.95-25.2-11.36-39.276-27.2-40.706-0.28-0.025-0.61-0.054-0.69-0.079-2.51-1.36-4.78-1.864-6.81-1.864" fill="#ffcbb2"/><path d="m1870.3 302.12c16.47-31.028 15.47-43.296 23.27-101.86 0.29-2.129-1.12-4.116-3.17-4.502-35.68-6.717-58.66-8.214-91.42-1.39-1.92 0.399-3.26 2.19-3.14 4.195 3.71 61.42 0 63.653 17.42 102.01 16.03-3.641 40.73-1.542 57.04 1.55" fill="#005f5b"/><path d="m1782.5 219.38c1.52 0.85 2.53-2.236 0.29-2.545-0.73-0.103-1.47 0.308-1.92 0.917-0.75-1.52 2.04-2.82 1.47-4.368-1.08-2.931-14.96 3.496-11.01 11.882 0.84 1.793 2.02 0.257 3.17-0.479 7.7-4.952 13.86-0.86 8-5.407" fill="#ee795c"/><path d="m1768.4 229.04c-1.09-1.31-1.13-1.719-0.97-3.49 0.53-6.121-1.67-6.117 1.57-9.645 5.73-6.243 10.36-8.423 10.1-5.57-0.28 3.157-11.56 6.775-5.99 15.549 3.95 6.226 8.31-0.51 6.79-4.084-0.42-0.976-2.26-3.122-0.83-6.073 7.31 4.508 4.95 12.286 5.62 16.931 0.26 1.785 2.53 8.46-2.64 9.571-3.12 0.671-3.54-1.097-13.65-13.189" fill="#fd9c8d"/><path d="m1870.3 302.12c-19.26-6.068-41.11-6.774-57.04-1.55l1.8 11.418 52.86 1.436 2.38-11.304" fill="#004243"/><path d="m1889.2 230.95c-2.46-0.224-0.25 5.599 0.14 11.986 0.71 11.251-5.27 13.389-5.43 8.594-0.06-1.684 1.35-4.834-1.54-6.736-0.52-0.344-1.95-0.693-1.74 0.857 0.46 3.482-1.95 2.438 1.34 13.452 1.41 4.711 0.66 11.471 5.49 11.48 5.16 9e-3 4.96-8.354 5.32-10.524 3.44-20.654-2.65-29.025-3.58-29.109" fill="#ff9c8a"/><path d="m1856.8 364.08c6.58-18.972 56.49-36.933 47.31-45.715-7.63-7.298-13.54-16.476-17.11-26.543-2.2-6.227 0.5-4.161 3.26-10.148 3.01-6.526 4.58-8.089 11.59-7.664 7.02 0.425 15.41-6.899 20.28-1.699 9.12 9.718 15.75 22.95 16.01 36.447 0.17 8.903 3.86 20.147-0.79 28.712-2.64 4.872-7.75 7.649-11.36 11.819-11.77 13.624-29.51 17.372-44.32 30.342-13.31 11.656-29.25-2.899-24.87-15.551" fill="#ffe6d9"/><path d="m1902.4 274.53c2.66 0 5.44-0.961 8.13-1.893 4.34-1.496 8.43-2.91 11.17 0.016 9.85 10.502 15.63 23.664 15.87 36.109 0.05 2.587 0.39 5.312 0.74 8.197 0.87 7.033 1.77 14.305-1.47 20.264-1.57 2.895-4 5.003-6.58 7.236-1.61 1.398-3.28 2.843-4.71 4.494-6.4 7.399-14.53 11.837-23.14 16.535-7.08 3.864-14.4 7.86-21.13 13.756-5.55 4.866-12.24 5.499-17.89 1.698-5.61-3.78-8.21-10.803-6.17-16.701 3.23-9.302 17.07-18.37 29.29-26.37 10.06-6.589 18.74-12.278 19.16-16.773 0.1-1.156-0.32-2.2-1.27-3.104-7.57-7.244-13.44-16.355-16.98-26.346-1.29-3.65-0.87-4.112 0.37-5.485 0.77-0.847 1.82-2.007 2.87-4.282 2.93-6.341 4.3-7.779 11.1-7.37 0.21 0.013 0.43 0.019 0.64 0.019zm15.17-4.595c-2.32 0-4.87 0.881-7.37 1.744-2.81 0.974-5.71 1.976-8.37 1.82-7.21-0.437-8.97 1.203-12.09 7.957-0.99 2.134-1.94 3.183-2.7 4.026-1.47 1.625-2.01 2.446-0.58 6.505 3.59 10.14 9.56 19.386 17.24 26.739 0.72 0.689 1.04 1.435 0.96 2.28-0.37 4.006-9.28 9.84-18.71 16.017-12.35 8.089-26.35 17.257-29.68 26.886-2.19 6.325 0.56 13.842 6.55 17.874 6.06 4.075 13.21 3.409 19.13-1.776 6.65-5.823 13.92-9.791 20.95-13.629 8.69-4.743 16.9-9.223 23.42-16.762 1.38-1.596 3.02-3.017 4.6-4.391 2.54-2.193 5.16-4.462 6.82-7.519 3.38-6.243 2.47-13.68 1.58-20.871-0.36-2.858-0.69-5.557-0.74-8.092-0.24-12.693-6.12-26.101-16.14-36.784-1.39-1.49-3.06-2.024-4.87-2.024" fill="#ffcbb2"/><path d="m1884.4 269.76 7.99-5.867 9.44 10.11c-4.88 0.757-8.64 3.348-11.59 7.664l-5.84-11.907" fill="#ffcbb2"/><path d="m1826 390.11c2.22-7.746 28.7-7.212 30.37 0.377 7.9-2.509 15.01-4.49 22.19-8.713 6.5-43.966-2.29-68.794-12.74-70.64-21.74-3.547-34.64-4.186-50.79-0.727-14.24 4.666-12.77 53.392-6.84 73.209 0 0 6.39 2.96 17.81 6.494" fill="#ffe6d9"/><path d="m1808.6 383.25c-6.1-20.695-6.93-67.936 6.58-72.361 16.8-3.596 30.21-2.571 50.55 0.745 9.16 1.617 19.03 24.351 12.36 69.825-6.27 3.648-12.6 5.629-19.28 7.726l-2.11 0.663c-1.44-3.965-8.7-5.602-14.69-5.792-7.02-0.225-14.65 1.378-16.34 5.425-9.85-3.073-15.9-5.709-17.07-6.231zm27.56-75.636c-7 0-13.78 0.699-21.24 2.297-15.18 4.97-12.88 54.972-7.22 73.851l0.06 0.218 0.21 0.096c0.06 0.03 6.55 3.015 17.87 6.518l0.49 0.153 0.14-0.497c1.06-3.69 8.6-5.4 15.51-5.181 7.51 0.238 13.22 2.511 13.88 5.527l0.12 0.543 3.13-0.986c6.82-2.139 13.26-4.158 19.7-7.942l0.21-0.123 0.03-0.24c6.45-43.609-1.96-69.238-13.15-71.213-11.49-1.875-20.79-3.021-29.74-3.021" fill="#ffcbb2"/><path d="m1843.9 308.42c-0.85 0-2.18-0.11-3.64-0.231-0.99-0.082-2.15-0.178-3.51-0.275-0.22-0.015-0.28-0.047-0.28-0.048-0.26-0.361-0.09-2.622 0.16-5.749 0.1-1.381 0.23-3.039 0.37-5.03 0.01-0.248 0.05-0.315 0.06-0.318 0.31-0.24 2.27-0.078 4.55 0.11 0.99 0.082 2.15 0.179 3.51 0.276 0.22 0.015 0.28 0.047 0.28 0.048 0.26 0.361 0.09 2.621-0.16 5.749-0.1 1.381-0.23 3.039-0.37 5.03-0.01 0.248-0.05 0.315-0.06 0.318-0.11 0.086-0.43 0.12-0.91 0.12zm-5.83-13.592c-1.09 0-1.73 0.151-2.21 0.569-0.55 0.47-0.65 1.12-0.68 1.568-0.14 1.983-0.26 3.635-0.37 5.01-0.37 4.757-0.48 6.193 0.3 7.099 0.45 0.528 1.08 0.63 1.51 0.661 1.35 0.096 2.51 0.192 3.49 0.273 3.66 0.303 5.03 0.417 5.91-0.336 0.54-0.47 0.64-1.12 0.67-1.568 0.14-1.983 0.27-3.635 0.37-5.01 0.37-4.757 0.48-6.193-0.3-7.099-0.45-0.528-1.08-0.63-1.51-0.661l-0.06 0.91 0.06-0.91c-1.35-0.096-2.51-0.192-3.49-0.274-1.63-0.134-2.81-0.232-3.69-0.232" fill="#004f4f"/><path d="m1786.3 240.97-9.83-0.244-2.29 13.816c4.45-2.189 8.98-2.217 13.78-0.344l-1.66-13.228" fill="#ffcbb2"/><path d="m1862.9 398.19c1.6 26.547 11.07 39.898 0.25 61.728-5.78 11.646-13.51 12.43-14.55 7.62-0.13-0.602 13.9-75.858 14.3-69.348" fill="#2c3945"/><path d="m1856.4 390.49c-1.04-7.53-28.84-8.538-30.37-0.377l2.88 14.338c8.46-2.177 16.02-2.652 25.02 0l2.47-13.961" fill="#ffcbb2"/><g fill="#30323e"><path d="m1850.7 459.36c-0.04 0-0.09 6e-3 -0.14 0.018-0.27 0.076-0.42 0.356-0.35 0.625 0.69 2.457 0.3 5.207-1.05 7.357-0.14 0.237-0.07 0.551 0.17 0.699 0.23 0.147 0.55 0.077 0.69-0.161 1.5-2.388 1.93-5.442 1.17-8.168-0.06-0.224-0.27-0.37-0.49-0.37"/><path d="m1836.1 465.84c-0.12 0-0.24 0.044-0.34 0.133-0.2 0.189-0.22 0.509-0.03 0.716 2.66 2.902 6.46 3.494 8.91 3.12 1.59-0.242 2.77-0.886 3.16-1.721 0.12-0.253 0.01-0.555-0.24-0.674-0.26-0.119-0.56-0.01-0.68 0.243-0.2 0.421-1.01 0.94-2.39 1.15-2.2 0.336-5.63-0.196-8.01-2.803-0.1-0.109-0.24-0.164-0.38-0.164"/><path d="m1843.3 463.24c-0.33 0-0.65 0.02-0.98 0.069-0.28 0.042-0.47 0.3-0.43 0.577 0.04 0.278 0.3 0.47 0.58 0.426 1.09-0.163 2.18 0.038 3.35 0.251 0.62 0.116 1.27 0.234 1.92 0.292 0.78 0.073 1.02-0.342 1.09-0.521 0.11-0.259-0.01-0.555-0.27-0.661-0.22-0.09-0.47-0.014-0.61 0.175-0.02 3e-3 -0.06 2e-3 -0.12-3e-3 -0.6-0.054-1.23-0.168-1.83-0.279-0.88-0.161-1.78-0.326-2.7-0.326"/><path d="m1835.8 452.73c-0.13 0-0.25 0.046-0.35 0.137-0.2 0.191-0.22 0.512-0.02 0.717 3.27 3.492 5.42 3.592 7.49 3.688 1.12 0.052 2.18 0.1 3.45 0.679 0.89 0.403 1.89 1.256 2.05 2.445 0.04 0.278 0.3 0.47 0.58 0.434 0.27-0.038 0.47-0.294 0.43-0.571-0.18-1.336-1.19-2.574-2.64-3.23-1.45-0.661-2.65-0.716-3.82-0.77-1.96-0.091-3.81-0.176-6.8-3.369-0.1-0.106-0.24-0.16-0.37-0.16"/><path d="m1823.5 448.24c-0.03 0-0.05 1e-3 -0.08 5e-3 -0.28 0.043-0.47 0.302-0.42 0.578 0.74 4.799 3.49 8.997 5.92 12.7 0.15 0.234 0.47 0.3 0.7 0.146 0.24-0.153 0.3-0.468 0.15-0.701-2.37-3.618-5.06-7.718-5.77-12.299-0.04-0.25-0.26-0.429-0.5-0.429"/><path d="m1825.3 442.98c-0.03 0-0.06 2e-3 -0.09 8e-3 -0.28 0.049-0.46 0.313-0.41 0.589 0.75 4.154 1.32 5.167 3.47 7.69 0.18 0.214 0.5 0.24 0.71 0.059 0.22-0.182 0.24-0.501 0.06-0.715-1.92-2.256-2.5-3.09-3.24-7.214-0.05-0.245-0.26-0.417-0.5-0.417"/><path d="m1860.8 457.82c-0.28 0-0.51 0.22-0.51 0.496-0.08 3.474-3.43 6.688-5.79 7.86-1.11 0.553-1.67 0.502-1.82 0.4-0.22-0.164-0.54-0.115-0.71 0.113-0.16 0.227-0.11 0.544 0.12 0.708 0.75 0.545 1.97 0.13 2.87-0.314 2.4-1.196 6.25-4.629 6.34-8.745 0.01-0.28-0.21-0.512-0.49-0.518h-0.01"/><path d="m1855.6 459.53c-0.24 0-0.45 0.162-0.5 0.399-0.16 0.748-1.4 2.128-2.3 2.06-0.31-0.02-0.52 0.201-0.53 0.48-0.02 0.28 0.2 0.518 0.48 0.532 1.44 0.076 3.09-1.701 3.34-2.856 0.06-0.274-0.11-0.544-0.38-0.603-0.04-9e-3 -0.08-0.012-0.11-0.012"/><path d="m1856.4 437.73c-0.23 0-0.43 0.155-0.49 0.386-1.84 7.462-2.45 11.87-2.86 14.786-0.35 2.518-0.53 3.781-1.18 4.84-0.15 0.239-0.08 0.551 0.16 0.698s0.55 0.073 0.7-0.165c0.76-1.241 0.96-2.658 1.32-5.232 0.41-2.896 1.02-7.273 2.84-14.685 0.07-0.272-0.09-0.546-0.37-0.613-0.04-0.01-0.08-0.015-0.12-0.015"/><path d="m1863.9 430.66c-0.03 0-0.05 1e-3 -0.08 5e-3 -0.28 0.041-0.47 0.299-0.43 0.576l0.04 0.223c0.89 6.053 2.01 13.586-0.88 19.944-0.11 0.255 0 0.556 0.26 0.671 0.25 0.117 0.55 4e-3 0.67-0.252 3.01-6.631 1.87-14.327 0.95-20.512l-0.03-0.222c-0.04-0.252-0.26-0.433-0.5-0.433"/><path d="m1862.1 413.72c-0.25 0-0.47 0.187-0.5 0.443-0.61 4.86-1.5 9.737-2.63 14.494-0.06 0.273 0.1 0.545 0.38 0.61 0.27 0.065 0.54-0.105 0.61-0.376 1.14-4.792 2.03-9.705 2.65-14.601 0.03-0.277-0.16-0.531-0.44-0.566-0.02-3e-3 -0.05-4e-3 -0.07-4e-3"/><path d="m1818.9 419.57c-0.08 0-0.17 0.022-0.25 0.067-1.3 0.739-1.79 2.039-1.39 3.662 0.46 1.873 2.03 3.748 3.17 3.785 0.32-0.017 0.51-0.211 0.52-0.49 0.01-0.28-0.21-0.514-0.49-0.524-0.48-0.016-1.82-1.421-2.21-3.014-0.29-1.176 0.01-2.03 0.9-2.538 0.25-0.139 0.33-0.448 0.19-0.692-0.09-0.164-0.26-0.256-0.44-0.256"/><path d="m1825.6 417.18c-0.13 0-0.25 0.046-0.35 0.138-1.56 1.474-2.52 3.654-2.55 5.832 0 0.279 0.22 0.51 0.5 0.514 0.29 0 0.51-0.222 0.52-0.5 0.02-1.909 0.86-3.819 2.22-5.109 0.21-0.192 0.22-0.512 0.03-0.716-0.1-0.106-0.24-0.159-0.37-0.159"/><path d="m1823.5 414.92c-0.02 0-0.05 2e-3 -0.07 6e-3 -1.4 0.207-2.71 1.048-3.5 2.249-0.15 0.234-0.08 0.548 0.15 0.702 0.23 0.153 0.55 0.09 0.7-0.145 0.64-0.964 1.68-1.638 2.8-1.803 0.27-0.041 0.47-0.299 0.42-0.576-0.03-0.252-0.25-0.433-0.5-0.433"/></g><g fill="#ffcbb2"><path d="m1912.7 313.87c-0.21 0-0.4 0.127-0.48 0.333-1.23 3.361-2.78 6.468-5.79 6.413l-1-0.016 6.17 8.774c0.16 0.23 0.48 0.284 0.71 0.123s0.28-0.477 0.12-0.706l-5.08-7.232c3.48-0.603 5.04-4.87 5.82-7.007 0.1-0.264-0.03-0.555-0.3-0.651-0.05-0.021-0.11-0.031-0.17-0.031"/><path d="m1925.5 330.05c-0.24 0-0.45 0.177-0.49 0.425-0.36 2.154 0.52 3.498 1.38 4.798 1.28 1.951 2.6 3.968 0.91 9.272-0.09 0.266 0.06 0.551 0.32 0.637 0.27 0.084 0.56-0.062 0.64-0.329 1.85-5.763 0.25-8.188-1.03-10.137-0.84-1.292-1.51-2.313-1.22-4.076 0.04-0.277-0.15-0.537-0.42-0.583-0.03-5e-3 -0.06-7e-3 -0.09-7e-3"/><path d="m1787.9 253.78-0.51 0.958c-0.79 1.487-1.17 3.169-1.1 4.864 0.02 0.28 0.26 0.488 0.53 0.484 0.28-0.013 0.5-0.25 0.49-0.531-0.06-1.137 0.12-2.269 0.52-3.325 1.15 2.495 2.74 4.812 4.64 6.752 0.19 0.201 0.51 0.204 0.71 8e-3 0.2-0.195 0.21-0.517 0.01-0.717-2.07-2.119-3.76-4.708-4.88-7.486l-0.41-1.007"/><path d="m1774.3 255.99c-0.21 0-0.41 0.137-0.48 0.351-0.75 2.327-0.82 4.91-0.2 7.276 0.08 0.27 0.35 0.43 0.62 0.36 0.27-0.072 0.44-0.348 0.36-0.62-0.57-2.18-0.51-4.561 0.18-6.705 0.09-0.267-0.06-0.552-0.33-0.638-0.05-0.016-0.1-0.024-0.15-0.024"/><path d="m1891.5 283.49c-0.24 0-0.46 0.174-0.5 0.422-0.54 3.158 0.6 6.6 2.9 8.768 0.2 0.191 0.52 0.183 0.72-0.021 0.19-0.204 0.18-0.524-0.03-0.716-2.05-1.943-3.07-5.028-2.59-7.861 0.05-0.276-0.14-0.538-0.41-0.585-0.03-5e-3 -0.06-7e-3 -0.09-7e-3"/><path d="m1901.8 275.27c-0.22 0-0.43 0.147-0.49 0.371-0.07 0.27 0.08 0.55 0.36 0.624 2.92 0.81 5.51 2.636 7.31 5.145 0.16 0.228 0.48 0.278 0.7 0.117 0.23-0.163 0.28-0.479 0.12-0.707-1.92-2.697-4.72-4.661-7.87-5.532-0.04-0.012-0.09-0.018-0.13-0.018"/><path d="m1792.1 332.99c-0.09 0-0.18 0.024-0.27 0.075-4.28 2.616-6.7 7.968-5.9 13.015 0.04 0.278 0.31 0.464 0.58 0.421 0.28-0.044 0.47-0.304 0.42-0.581-0.74-4.652 1.49-9.582 5.43-11.99 0.24-0.146 0.32-0.458 0.17-0.697-0.09-0.157-0.26-0.243-0.43-0.243"/><path d="m1802.7 296.94c-0.14 0-0.28 0.061-0.38 0.18-0.18 0.214-0.16 0.534 0.06 0.714 0.86 0.731 1.67 1.402 2.42 2.023 4.62 3.827 6.94 5.748 6.65 8.334-0.04 0.279 0.16 0.53 0.44 0.561 0.28 0.033 0.53-0.167 0.56-0.446 0.36-3.131-2.1-5.169-7-9.23-0.75-0.62-1.55-1.288-2.42-2.017-0.09-0.08-0.21-0.119-0.33-0.119"/><path d="m1819 312.35c-0.13 0-0.26 0.053-0.36 0.156-2.64 2.746-4.12 6.686-3.97 10.539 0.02 0.28 0.27 0.499 0.53 0.486 0.28-0.012 0.5-0.247 0.49-0.527-0.15-3.583 1.23-7.244 3.68-9.796 0.19-0.201 0.18-0.522-0.02-0.716-0.1-0.095-0.22-0.142-0.35-0.142"/><path d="m1858 312.95c-0.16 0-0.32 0.073-0.42 0.21-0.16 0.227-0.11 0.544 0.12 0.708 4.27 3.081 7.06 8.112 7.47 13.458 0.02 0.279 0.27 0.486 0.55 0.466 0.27-0.021 0.48-0.265 0.46-0.544-0.43-5.639-3.38-10.948-7.89-14.202-0.09-0.064-0.19-0.096-0.29-0.096"/></g><g fill="#004243"><path d="m1816 194.37c-0.27 0-0.49 0.207-0.51 0.475-2.06 33.267 1.14 70.196 8.77 101.32 0.07 0.272 0.34 0.442 0.61 0.371 0.28-0.066 0.44-0.34 0.38-0.612-7.61-31.026-10.8-67.843-8.75-101.01 0.02-0.279-0.19-0.52-0.47-0.537-0.01-1e-3 -0.02-1e-3 -0.03-1e-3"/><path d="m1870.2 195.78c-0.31 0.019-0.52 0.26-0.51 0.539 2.54 39.674-0.81 73.587-9.93 100.8-0.09 0.265 0.05 0.552 0.32 0.641 0.26 0.089 0.55-0.054 0.64-0.319 9.16-27.334 12.53-61.377 9.99-101.18-0.02-0.269-0.24-0.475-0.51-0.475"/><path d="m1805.6 277.95c-0.14 0-0.28 0.058-0.38 0.172-0.18 0.211-0.16 0.531 0.05 0.716 6.69 5.863 10.86 13.384 14.06 19.967 0.12 0.252 0.42 0.357 0.67 0.235 0.26-0.122 0.36-0.425 0.24-0.677-3.24-6.675-7.47-14.306-14.3-20.288-0.1-0.084-0.22-0.125-0.34-0.125"/><path d="m1878.6 282.23c-0.04 0-0.09 5e-3 -0.13 0.017-6.73 1.796-13.53 11.969-15.25 18.183-0.08 0.27 0.08 0.55 0.35 0.624 0.27 0.075 0.55-0.083 0.62-0.352 1.85-6.651 8.75-15.929 14.54-17.476 0.27-0.072 0.43-0.35 0.36-0.62-0.06-0.227-0.27-0.376-0.49-0.376"/></g><path d="m1799 25.355c-0.5 0.809-0.6 1.8488-0.27 2.7449 0.97 2.616 26.9 19.918 25.91 19.231 4.77-3.0418 11.12-1.4559 13.49 1.1953 1.67-3.5012 6.48-16.122 1.73-17.425-2.83-0.7782-38.73-9.1571-40.86-5.7461" fill="#f2e8de"/><g fill="#fffffb"><path d="m1799.4 25.624c1.74-2.7941 34.4 4.3457 40.3 5.9668 0.57 0.1582 0.99 0.527 1.27 1.1289 1.41 3.0903-1.31 11.093-3.03 14.94-2.72-2.3813-8.59-3.7582-13.33-0.9274-3.25-2.1168-24.65-16.707-25.43-18.808-0.28-0.7539-0.19-1.6359 0.22-2.3008zm3.36-1.5262c-2.24 0-3.78 0.2891-4.22 0.9891-0.59 0.9399-0.7 2.132-0.31 3.1891 0.91 2.4617 20.95 16.04 25.51 19.008l-0.05 0.0301 0.63 0.4339 0.05-0.0601c0.17 0.1113 0.27 0.1691 0.28 0.1691l0.37-0.0129 0.06-0.2101c4.58-2.766 10.52-1.1469 12.65 1.2308l0.51 0.5661 0.32-0.6868c1.44-3.0203 5.13-12.521 3.33-16.445-0.41-0.8801-1.05-1.4472-1.92-1.6871-0.32-0.0859-26.62-6.5141-37.21-6.5141"/><path d="m1812.7 31.773c-1.02 0-2.18 0.327-3.1 0.761-0.86 0.407-1.95 1.1109-2.22 2.1469-0.15 0.541 0.18 1.0961 0.72 1.2402 0.54 0.1379 1.09-0.1789 1.24-0.7199 0.04-0.1301 0.44-0.5422 1.32-0.9223 1.15-0.4918 2.19-0.559 2.5-0.416 0.51 0.2332 1.11 0.0101 1.34-0.5 0.24-0.509 0.01-1.1098-0.49-1.3438-0.38-0.1722-0.83-0.2461-1.31-0.2461"/><path d="m1818 35.648c-2.08 0-4.12 1.1211-5.23 2.934-0.29 0.477-0.14 1.1008 0.34 1.3942 0.47 0.2937 1.1 0.1429 1.39-0.3344 0.82-1.3328 2.44-2.1348 3.97-1.9359 0.55 0.073 1.06-0.3219 1.13-0.8778 0.07-0.5551-0.32-1.0633-0.88-1.134-0.24-0.03-0.48-0.0461-0.72-0.0461"/><path d="m1822.7 39.402c-1.87 0-3.74 0.725-5.13 2.014-0.41 0.3809-0.43 1.0219-0.05 1.432 0.38 0.411 1.02 0.434 1.43 0.052 1.15-1.073 2.77-1.6148 4.31-1.4391 0.56 0.059 1.06-0.339 1.12-0.8961 0.06-0.5558-0.34-1.0566-0.9-1.1199-0.26-0.0289-0.52-0.0429-0.78-0.0429"/></g><path d="m1829.8 29.25c-1.44 2.4512 0.79 4.5648 3.11 6.0988 10.81 7.1594 23.1 15.152 23.1 15.152 4.69-3.1742 11.08-1.7672 13.53 0.8168 1.38-3.1258 6.18-16.268 1.18-17.486-2.87-0.6988-38.86-8.089-40.92-4.582" fill="#f2e8de"/><g fill="#fffffb"><path d="m1830.2 29.507c1.68-2.864 34.21 3.3192 40.36 4.8168 0.62 0.15 1.06 0.5231 1.37 1.1414 1.51 3.0789-0.96 11.007-2.62 14.992-2.78-2.3019-8.68-3.5109-13.34-0.5621-1.88-1.2269-13.03-8.484-22.83-14.968-3.01-1.993-3.94-3.7149-2.94-5.42zm4.2-1.648c-2.72 0-4.6 0.325-5.07 1.134-1.3 2.2082-0.2 4.489 3.25 6.7789 10.7 7.0769 22.99 15.073 23.12 15.154l0.28 0.1828 0.28-0.1879c4.52-3.0672 10.64-1.6039 12.87 0.7461l0.52 0.5519 0.31-0.6961c1.35-3.0531 4.78-12.638 2.88-16.506-0.44-0.8906-1.13-1.4559-2.04-1.6766-0.31-0.0773-25.31-5.4812-36.4-5.4812"/><path d="m1843.1 34.183c-0.05 0-0.1 0.0043-0.16 0.0121-1.18 0.184-4.77 0.743-5.02 3.816-0.04 0.5582 0.37 1.0469 0.93 1.093 0.56 0.0402 1.05-0.3711 1.09-0.9277 0.06-0.6891 0.49-1.5371 3.32-1.9774 0.55-0.0859 0.93-0.6047 0.84-1.1578-0.08-0.5-0.51-0.8582-1-0.8582"/><path d="m1848.2 38.144c-2.13 0.0911-4.15 1.2391-5.33 2.9957-0.31 0.4653-0.18 1.0954 0.28 1.4071 0.47 0.3121 1.1 0.1859 1.41-0.2801 0.82-1.2297 2.23-2.034 3.68-2.0957 0.56-0.0242 0.99-0.4969 0.97-1.057-0.02-0.5442-0.47-0.97-1.01-0.97"/><path d="m1852.5 41.697c-1.68 0-3.71 1.1062-4.45 2.1293-0.33 0.4539-0.23 1.0879 0.23 1.416 0.45 0.3258 1.09 0.2258 1.41-0.2293 0.5-0.6899 2.4-1.5258 3.15-1.2438 0.52 0.1989 1.11-0.0679 1.3-0.5929 0.2-0.525-0.07-1.109-0.59-1.3051-0.32-0.1199-0.68-0.1742-1.05-0.1742"/></g><path d="m1498.5 460.82c1.92-12.352-2.46-20.619 1.67-32.446 3.95-11.292 22.54-6.431 16.82-33.072-1.8-8.369 14.47-10.145 10.88-17.872-3.92-8.451 8.6-16.889 1.19-26.594-0.8-1.037-2.02-1.646-3.23-2.043-15.39-5.023-27.5 7.046-41.42 11.398-19.79 6.189-43.41-3.752-51.98-0.222-14.7 6.059-17.37 27.879-9.3 35.824 3.36 3.298 8.17 4.489 11.85 7.392 17.77 14.016 2.64 65.118 28.23 75.181 10.04 3.948 32.6-0.203 35.29-17.546" fill="#4d3932"/><path d="m1494.6 383.19c-20.21 15.232-17.53 14.653-16.03 37.266l-23.17 1.436c2.13-25.827-10.27-24.053-24.77-32.083 13.41-14.72 44.86-19.96 63.97-6.619" fill="#fd9c8d"/><path d="m1482 420.26c7.27 8.434 16.82 34.426 2.83 47.607-8.56 8.059-32.12 8.784-34.71-17.519-3.53-35.82 16.5-47.933 31.88-30.088" fill="#fd9c8d"/><path d="m1450.2 439.69c-1.36 6.645 0 13.376 1.34 20.024 2 9.916 9.05 5.525 5.87 0.668-6.2-9.478-4.51-6.358-7.21-20.692" fill="#4d3932"/><path d="m1488.1 430.75c8.44 9.915 8.86 4.735 10.15 18.755 3.39 36.829-31.88 31.218-42.86 18.291-3.78-4.455-0.62-6.556 2.66-9.392 27.4-23.637 27.96 4.817 30.05-27.654" fill="#4d3932"/><path d="m1448.8 445.55c3.62 0.636 2.97-6.977 2.55-10.744-0.83-7.425-8.26 9.741-2.55 10.744" fill="#fd9c8d"/><path d="m1492.3 440.58c-3.38 1.494-4.47-6.065-4.9-9.829-0.87-7.421 10.22 7.477 4.9 9.829" fill="#fd9c8d"/><path d="m1476.6 438.24c1.21-0.149 2.71 4.506-0.23 4.866-1.57 0.192-1.75-4.623 0.23-4.866" fill="#382823"/><path d="m1455.8 440.78c-1.21 0.149-1.61 5.036 1.33 4.676 1.57-0.193 0.66-4.919-1.33-4.676" fill="#382823"/><path d="m1475.8 447.45c-1.96 0.17-2.1-1.45-0.73-2.059 0.4-0.177 8.12-2.704 7.85-2.181-0.58 1.101-3.41 3.919-7.12 4.24" fill="#573f39"/><path d="m1459.5 449.94c1.95-0.221 1.79-1.839 0.33-2.165-0.7-0.154-8.58-1.113-8.02-0.487 0.9 1.01 4.11 3.056 7.69 2.652" fill="#573f39"/><path d="m1464.9 431.48c4.37-1.243 3.85 0.769 2.63 0.529-4.09-0.797-0.18 1.559-0.86 8.64-0.07 0.744-0.91 0.648-0.92 0.028-0.01-0.43 0.12-1.988 0.08-2.444-0.54-5.652-2.32-6.355-0.93-6.753" fill="#ee795c"/><path d="m1460.1 425.51c5.69-10.899 11.82-1.118 10.13-0.83-8.59 1.468-10.83 2.168-10.13 0.83" fill="#fff"/><g fill="#ee795c"><path d="m1491.1 436.97c-0.06 0.359-0.58 0.257-0.52-0.098 0.38-2.162-0.37-3.31-1.26-3.68-0.13-0.056-0.2-0.217-0.14-0.357 0.36-0.934 2.46 1.044 1.92 4.135"/><path d="m1449.2 437.71c-0.65 1.006-0.35 2.414-0.02 3.656 0.1 0.35-0.42 0.494-0.51 0.147-1.25-4.658 1.13-4.725 0.53-3.803"/><path d="m1477.3 416.2c-7.94-7.133-18.37-2.929-20.82 1.978-0.97 1.914-0.6-4.287 8.26-6.047 9.79-1.943 14.85 6.132 12.56 4.069"/><path d="m1541.8 221.83c-1.7 0.316-1.71-2.962 0.51-2.527 0.73 0.143 2.57 1.06 2.81 1.787 1.17-1.208-2.33-3.641-1.32-4.933 1.92-2.447 13.12 8.233 6.79 14.952-1.35 1.437-2-0.417-2.86-1.496-5.78-7.25-12.88-5.355-5.93-7.783"/></g><path d="m1514.4 351.03c4.7-47.868 24.97-107.36 24.97-107.36 2.21-1.127 5.79-3.616 12.85-7.986 1.44-0.893 1.6-1.273 1.99-3.015 1.38-6.023 3.47-5.296 1.48-9.728-3.52-7.838-7.24-11.435-7.87-8.626-0.7 3.11 8.89 10.256 0.91 16.816-5.67 4.654-7.74-3.209-5.19-6.124 0.69-0.797 3.1-2.244 2.65-5.529-8.32 1.916-8.47 10.116-10.54 14.333-0.45 0.923-2.01 3.153-2.43 5.408-16.66 45.287-24.33 49.281-40.15 116.55 7.8 1.495 12.63 0.718 20.54 0.134 0.53-3.12 1.06-6.241 1.59-9.362l-0.8 4.49" fill="#ff9c8a"/><path d="m1388.2 225.23c1.68 0.371 1.79-2.906-0.44-2.542-0.73 0.12-2.6 0.977-2.86 1.696-1.13-1.246 2.44-3.564 1.47-4.888-1.85-2.508-13.36 7.807-7.24 14.726 1.31 1.48 2.01-0.352 2.9-1.403 6-7.06 13.04-4.939 6.17-7.589" fill="#ee795c"/><g fill="#ff9c8a"><path d="m1411.7 355.25c-3.26-47.996-21.73-108.12-21.73-108.12-2.18-1.198-5.69-3.801-12.61-8.395-1.41-0.939-1.56-1.324-1.91-3.078-1.19-6.064-3.3-5.404-1.18-9.77 3.75-7.721 7.58-11.198 8.13-8.369 0.6 3.13-9.2 9.966-1.41 16.779 5.52 4.833 7.82-2.96 5.37-5.955-0.67-0.819-3.03-2.343-2.49-5.612 8.25 2.182 8.16 10.383 10.1 14.664 0.43 0.939 1.92 3.217 2.27 5.485 15.3 45.799 22.84 50.038 36.63 117.79-7.83 1.245-8.43 0.784-16.32-0.053-0.44-3.136-5.08-6.744-5.52-9.881l0.67 4.514"/><path d="m1394.2 45.575c1.6-8.3051 11-9.5711 13.53-0.6941l2.78 21.934-16.7 2.4704 0.39-23.71"/><path d="m1494.6 45.599c2.05-8.2 11.5-8.9246 13.55 0.0832l1.6 22.061-16.8 1.509 1.65-23.653"/></g><path d="m1410.3 255c-18.3-203.29-23.17-206.09-18.61-206.64 18.67-2.2293 19.59-2.9633 20.13-0.6481l46.86 201.47c33.57-211.32 30.99-199.86 33.32-199.95 18.65-0.7472 20.36-1.5031 20.35 1.243-0.02 19.707-0.22 174.69-2.41 196.66-3.5 35.242-14.42 57.997-17.05 57.913-69.82-2.211-65.61-1.675-66.15-2.982-2.41-5.762-15.58-37.561-16.44-47.063" fill="#323d4d"/><g fill="#fffffb"><path d="m1502.8 274.21c-0.11 0-0.21 0.032-0.3 0.098l-0.52 0.38c-6.94 5.064-15.58 11.366-17.82 29.466-0.04 0.278 0.16 0.532 0.44 0.567 0.27 0.032 0.53-0.163 0.57-0.442 2.19-17.662 10.63-23.821 17.41-28.769l0.52-0.381c0.22-0.166 0.27-0.484 0.11-0.711-0.1-0.136-0.26-0.208-0.41-0.208"/><path d="m1417.1 272.34c-0.16 0-0.31 0.072-0.41 0.208-0.17 0.227-0.12 0.545 0.11 0.711l0.52 0.382c6.78 4.949 15.21 11.107 17.41 28.768 0.03 0.28 0.29 0.475 0.56 0.442 0.28-0.034 0.48-0.288 0.45-0.567-2.25-18.098-10.88-24.4-17.82-29.464l-0.52-0.382c-0.09-0.066-0.2-0.098-0.3-0.098"/><path d="m1464.8 262.79c-2.54 0-4.53 0.706-6.04 2.135-4.67 4.404-3.81 14.806-2.8 26.851 0.31 3.795 0.64 7.72 0.8 11.605 0.01 0.28 0.26 0.478 0.53 0.487 0.28-0.012 0.5-0.249 0.49-0.529-0.16-3.906-0.49-7.842-0.81-11.648-0.94-11.292-1.83-21.958 2.49-26.025 1.71-1.619 4.18-2.172 7.54-1.69 0.28 0.037 0.54-0.152 0.58-0.431s-0.15-0.536-0.43-0.576c-0.83-0.12-1.62-0.179-2.35-0.179"/><path d="m1458.7 252.05-0.39 0.664c-0.12 0.209-0.23 0.418-0.35 0.627-0.88 1.605-1.65 2.994-5.38 2.994-0.06 0-0.12 0.012-0.18-1e-3 -0.28 0-0.51 0.223-0.51 0.503 0 0.281 0.22 0.511 0.5 0.514 0.07 1e-3 0.13 1e-3 0.19 1e-3 4.3 0 5.31-1.762 6.25-3.479 1.96 2.201 4.77 3.057 6.69 2.931 0.87-0.064 1.46-0.34 1.71-0.798 0.13-0.249 0.04-0.557-0.21-0.689-0.25-0.133-0.56-0.039-0.69 0.208-0.03 0.046-0.26 0.227-0.93 0.268-1.51 0.091-4.42-0.664-6.24-3.124l-0.46-0.619"/><path d="m1410.2 49.108c-0.04 0-0.07 0.0043-0.11 0.0133-0.28 0.0609-0.45 0.334-0.39 0.6078 11.68 51.702 21.51 94.831 29.41 129.49 7.33 32.138 12.62 55.359 15.52 68.476 0.06 0.274 0.34 0.445 0.61 0.388 0.27-0.062 0.44-0.333 0.38-0.607-2.9-13.122-8.19-36.343-15.52-68.483-7.9-34.654-17.73-77.782-29.4-129.48-0.06-0.2371-0.27-0.3973-0.5-0.3973"/><path d="m1510.5 50.657c-0.26 0-0.49 0.209-0.5 0.4789-1.04 18.198-1.2 41.066-1.39 67.546-0.34 48.866-0.74 104.25-6.7 153.75-0.03 0.279 0.17 0.532 0.45 0.566 0.27 0.036 0.53-0.166 0.56-0.444 5.97-49.556 6.36-104.97 6.71-153.86 0.19-26.466 0.35-49.323 1.38-67.494 0.02-0.2808-0.2-0.5207-0.48-0.5371-0.01-8e-4 -0.02-8e-4 -0.03-8e-4"/></g><path d="m1496.6 388.16c13.34-3.279 12.12-2.504 23.5-51.414 0.92-3.945-10.52-9.79-26.98-9.099-9.64 23.325-18.81 41.561-12.68 53.959 2.22 4.488 13.53 7.2 16.16 6.554" fill="#e95b4b"/><path d="m1493.5 328.15c12.64-0.467 22.52 2.967 25.42 6.469 0.43 0.508 0.89 1.271 0.72 2.02-0.87 3.718-1.66 7.148-2.39 10.315-8.72 37.77-8.72 37.77-20.34 40.621l-0.4 0.099c-2.3 0.566-13.45-1.963-15.58-6.286-5.33-10.763 1.18-26.176 9.41-45.69 1.03-2.453 2.09-4.969 3.16-7.548zm2.26-1.059c-0.86 0-1.74 0.018-2.63 0.055l-0.32 0.014-0.13 0.3c-1.11 2.682-2.21 5.297-3.28 7.843-8.33 19.753-14.92 35.356-9.39 46.536 2.32 4.682 13.77 7.549 16.74 6.823l0.4-0.1c12.23-2.999 12.23-2.999 21.09-41.379 0.73-3.167 1.52-6.596 2.39-10.314 0.21-0.914-0.11-1.917-0.92-2.899-2.88-3.467-12.08-6.879-23.95-6.879" fill="#bd2f2f"/><path d="m1437 392.16c-13.68-0.541-13.22 0.936-33.48-44.55-1.97-4.428 14.23-13.177 25.57-15.513 13.83 20.95 26.23 37.002 22.54 50.394-1.34 4.849-11.92 9.776-14.63 9.669" fill="#e95b4b"/><path d="m1437.1 391.65-1.25-0.047c-12.07-0.435-12.3-0.443-31.78-44.202-0.21-0.471-0.14-1.05 0.2-1.72 2.19-4.265 14.78-10.89 24.66-13.017 1.53 2.308 3.03 4.557 4.5 6.749 11.73 17.495 21 31.313 17.79 42.941-1.28 4.626-11.56 9.298-14.05 9.298-0.02 0-0.04-1e-3 -0.07-2e-3zm-7.7-60.122-0.34 0.069c-9.41 1.94-23.12 8.605-25.7 13.62-0.49 0.957-0.56 1.831-0.22 2.598 19.56 43.924 19.86 44.343 32.67 44.805l1.25 0.047c0.04 1e-3 0.08 2e-3 0.11 2e-3 3.2 0 13.65-5.049 15.03-10.045 3.33-12.076-6.05-26.066-17.92-43.778-1.53-2.281-3.1-4.624-4.69-7.031l-0.19-0.287" fill="#bd2f2f"/><path d="m1479.4 396.94c-3.93-8.022-25.32-11.52-29.39 2.516-14.02-4.183-19.21-7.811-19.21-7.811-1.48-15.483-18.49-86.83-1.99-89.507 25.33-4.111 44.02-6.047 65.45-1.923 11.39 4.859 6.11 85.998 5.94 87.032 0 0-7.51 2.62-20.8 9.693" fill="#e95b4b"/><path d="m1431.3 391.36c-0.34-3.331-1.32-8.924-2.54-15.96-3.94-22.573-10.54-60.355-3.4-70.387 0.97-1.362 2.13-2.136 3.55-2.366 26.46-4.294 44.7-5.875 65.22-1.936 10.22 4.603 6.28 79.669 5.63 86.173-1.52 0.559-8.68 3.311-20.13 9.376-2.54-4.372-10.07-7.378-17.13-6.76-6.4 0.558-11.04 3.948-12.81 9.33-11.97-3.613-17.35-6.809-18.39-7.47zm38.83-93.924c-12.35 0-25.37 1.608-41.38 4.207-1.68 0.272-3.1 1.207-4.22 2.78-7.38 10.378-1 46.951 3.22 71.152 1.26 7.189 2.25 12.867 2.56 16.125l0.02 0.234 0.2 0.135c0.21 0.15 5.42 3.722 19.35 7.881l0.49 0.147 0.15-0.493c2.08-7.175 8.45-8.776 12.07-9.09 6.93-0.607 14.28 2.381 16.38 6.657l0.23 0.471 0.46-0.246c13.09-6.968 20.66-9.635 20.73-9.661l0.29-0.1 0.05-0.3c0.12-0.795 5.64-82.507-6.25-87.581l-0.1-0.032c-8.23-1.583-16.1-2.286-24.25-2.286" fill="#bd2f2f"/><path d="m1365.9 27.234c-0.4 0.8769-0.35 1.9269 0.1 2.7762 1.3 2.4726 29.27 16.111 28.19 15.565 4.32-3.702 10.82-3.007 13.53-0.6941 1.19-3.725 4.29-16.987-0.58-17.624-2.91-0.3808-39.58-3.723-41.24-0.023" fill="#1e2635"/><path d="m1394.1 44.979c-3.55-1.6809-26.61-13.202-27.66-15.206-0.38-0.7152-0.41-1.607-0.09-2.3308 1.36-3.0293 34.66-0.4731 40.71 0.3187 0.59 0.077 1.04 0.3821 1.39 0.9332 1.83 2.8707 0.18 11.259-1.02 15.346-3.01-1.9937-9-2.5449-13.33 0.9391zm-16.13-19.967c-6.59 0-11.86 0.4961-12.55 2.0141-0.45 1.0168-0.41 2.2207 0.11 3.2199 1.22 2.3109 22.88 13.073 27.78 15.401l-0.04 0.0371 0.68 0.3449 0.04-0.066c0.2 0.0902 0.3 0.1273 0.3 0.1301l0.37-0.061 0.03-0.2218c4.17-3.3993 10.26-2.6172 12.69-0.5434l0.58 0.498 0.23-0.7296c1.03-3.2223 3.44-13.238 1.12-16.886-0.51-0.8097-1.22-1.2797-2.11-1.3957-0.26-0.034-17-1.741-29.23-1.741" fill="#323d4d"/><g fill="#fffffb"><path d="m1380.9 31.678c-1.13 0-2.49 0.552-3.5 1.2071-0.81 0.5296-1.81 1.3878-1.95 2.466-0.07 0.5578 0.32 1.0668 0.88 1.1367 0.58 0.0711 1.07-0.3231 1.14-0.8801 0.02-0.1367 0.36-0.6058 1.19-1.1129 1.08-0.6508 2.1-0.859 2.42-0.766 0.54 0.168 1.1-0.143 1.27-0.6789 0.16-0.5391-0.14-1.1059-0.68-1.268-0.24-0.0711-0.5-0.1039-0.77-0.1039"/><path d="m1386.9 34.788c-2.35 0.0281-4.56 1.518-5.52 3.707-0.23 0.5153 0 1.1141 0.52 1.341 0.51 0.225 1.11-7e-3 1.34-0.523 0.63-1.4481 2.15-2.4707 3.67-2.4899 0.57-7e-3 1.02-0.4679 1.01-1.03-0.01-0.5578-0.46-1.0051-1.02-1.0051"/><path d="m1392.1 37.867c-2.17 0.0609-4.26 1.1039-5.63 2.791-0.36 0.4359-0.29 1.0758 0.15 1.4309 0.43 0.3539 1.07 0.2898 1.43-0.1481 1-1.232 2.53-1.9949 4.08-2.0398 0.56-0.0153 1-0.484 0.98-1.0461-0.01-0.552-0.46-0.9879-1.01-0.9879"/></g><path d="m1467.1 25.855c-0.43 0.859-0.43 1.909-0.02 2.7781 1.19 2.5289 28.59 17.56 27.53 16.966 4.48-3.5047 10.94-2.3468 13.55 0.0832 1.34-3.6679 4.98-17.114 0.14-17.968-2.89-0.5102-39.39-5.4821-41.2-1.859" fill="#1e2635"/><path d="m1494.6 44.999c-3.57-1.9203-26.07-14.569-27.02-16.584-0.35-0.7308-0.34-1.6238 0.01-2.3316 1.48-2.9613 34.65 1.0707 40.66 2.132 0.57 0.1008 1.01 0.4258 1.34 0.995 1.79 3.1027-0.39 11.893-1.63 15.616-2.96-2.168-8.95-3.0641-13.36 0.173zm-19.64-20.931c-4.46 0-7.71 0.4191-8.28 1.5601-0.5 0.9961-0.51 2.2-0.02 3.2219 1.13 2.3859 22.33 14.217 27.13 16.781l-0.05 0.0382 0.66 0.3739 0.05-0.066c0.18 0.0949 0.28 0.1441 0.3 0.1441l0.36-0.0449 0.04-0.2192c4.25-3.1582 10.33-2.0179 12.7 0.1969l0.56 0.5242 0.27-0.7211c0.95-2.6199 4.07-13.209 1.79-17.156-0.48-0.8332-1.17-1.334-2.04-1.4883-0.29-0.0508-21.34-3.1438-33.47-3.1449" fill="#323d4d"/><g fill="#fffffb"><path d="m1481.8 30.961c-1.09 0-2.4 0.475-3.39 1.0571-0.83 0.4929-1.87 1.3058-2.05 2.3769-0.09 0.5539 0.28 1.0781 0.83 1.1723 0.56 0.0988 1.08-0.2793 1.18-0.832 0.03-0.1364 0.38-0.5883 1.23-1.0563 1.1-0.6039 2.13-0.7699 2.45-0.6578 0.53 0.1848 1.11-0.0941 1.3-0.6242 0.18-0.5297-0.1-1.1098-0.63-1.2957-0.27-0.0973-0.59-0.1403-0.92-0.1403"/><path d="m1487.5 34.333c-2.27 0-4.45 1.3727-5.48 3.4609-0.25 0.5051-0.04 1.1141 0.46 1.3618 0.51 0.2492 1.12 0.0402 1.37-0.4637 0.69-1.4172 2.29-2.3422 3.77-2.3231 0.55 0.0551 1.03-0.4222 1.05-0.9832 0.02-0.5621-0.42-1.0328-0.98-1.05-0.06-0.0019-0.13-0.0027-0.19-0.0027"/><path d="m1492.6 37.642c-2.1 0-4.18 0.9441-5.6 2.5402-0.37 0.42-0.33 1.0629 0.09 1.436 0.41 0.373 1.06 0.3351 1.43-0.086 1.06-1.1859 2.59-1.8949 4.16-1.855 0.57 0 1.03-0.445 1.03-1 0.01-0.5629-0.43-1.025-1-1.0352h-0.11"/></g><g fill="#573f39"><path d="m1496.8 446.63c-0.25 0-0.47 0.188-0.5 0.444-0.58 4.558-0.14 7.797 0.21 10.4 0.51 3.801 0.85 6.312-2.25 10.144-3.86 4.773-9.75 7.728-15.75 7.905-0.29 9e-3 -0.51 0.243-0.5 0.523 0.01 0.281 0.26 0.531 0.52 0.494 6.31-0.186 12.48-3.282 16.52-8.282 3.38-4.173 3-7.003 2.47-10.92-0.35-2.544-0.77-5.71-0.21-10.136 0.03-0.278-0.16-0.533-0.44-0.568-0.02-3e-3 -0.04-4e-3 -0.07-4e-3"/><path d="m1479.1 450.81c-4.81 0-10.1 1.938-13.71 5.251-3.15 2.881-4.54 6.326-3.91 9.699 0.05 0.277 0.31 0.46 0.59 0.408 0.28-0.051 0.46-0.317 0.41-0.593-0.56-3.015 0.71-6.129 3.59-8.764 4.46-4.083 11.57-5.97 16.89-4.486 0.28 0.076 0.56-0.084 0.63-0.354 0.08-0.271-0.08-0.551-0.35-0.627-1.3-0.361-2.7-0.534-4.14-0.534"/><path d="m1450.6 449.32c-0.3 9e-3 -0.52 0.244-0.51 0.525 0.16 4.67 1.64 9.37 4.18 13.233 0.16 0.236 0.47 0.298 0.7 0.146 0.24-0.154 0.3-0.469 0.15-0.704-2.44-3.71-3.86-8.223-4.01-12.708-0.01-0.276-0.23-0.492-0.51-0.492"/><path d="m1488.4 439.75c-0.24 0-0.45 0.17-0.5 0.414-0.18 0.97-0.09 2.014-0.01 3.024 0.14 1.576 0.26 3.065-0.59 4.185-0.17 0.223-0.13 0.542 0.09 0.713 0.23 0.17 0.55 0.127 0.72-0.097 1.09-1.432 0.94-3.188 0.8-4.887-0.09-0.985-0.17-1.915-0.01-2.748 0.05-0.276-0.13-0.542-0.4-0.594-0.04-7e-3 -0.07-0.01-0.1-0.01"/><path d="m1477.2 462.16c-0.14 0-0.27 0.053-0.37 0.158-1.91 2.018-4.67 3.734-7.11 5.248-3.11 1.936-5.36 3.336-5.37 4.905 0 0.766 0.32 1.361 0.94 1.72 2.68 1.567 10.61-1.928 13.04-3.308 0.24-0.14 0.33-0.45 0.19-0.694s-0.45-0.329-0.7-0.191c-3.04 1.731-10.04 4.469-12.02 3.315-0.3-0.176-0.43-0.434-0.43-0.838 0-1.006 2.49-2.551 4.89-4.045 2.49-1.547 5.31-3.299 7.31-5.412 0.19-0.204 0.18-0.526-0.02-0.719-0.1-0.093-0.23-0.139-0.35-0.139"/><path d="m1512.6 401.85c-0.08 0-0.17 0.02-0.24 0.062-0.25 0.136-0.34 0.445-0.2 0.691 3.36 6.143-2.66 10.771-8.48 15.247-3.54 2.721-6.89 5.291-7.9 8.102-0.82 2.25-0.5 4.449 0.15 8.829l0.3 2.064c0.04 0.279 0.31 0.473 0.58 0.432 0.27-0.04 0.47-0.297 0.43-0.576-0.11-0.741-0.21-1.428-0.3-2.068-0.62-4.212-0.94-6.326-0.21-8.335 0.92-2.531 4.15-5.014 7.57-7.641 5.87-4.517 12.53-9.635 8.75-16.542-0.1-0.169-0.27-0.265-0.45-0.265"/><path d="m1525.1 358.61c-0.07 0-0.15 0.017-0.22 0.051-0.25 0.123-0.36 0.427-0.24 0.68 0.77 1.589 0.44 3.709-0.99 6.3-3.52 6.383-2.73 8.556-2.03 10.474 0.39 1.085 0.73 2.023 0.17 3.754-0.45 1.393-1.5 2.183-2.94 3.277-1.65 1.243-3.7 2.791-5.72 5.893-0.15 0.236-0.09 0.551 0.15 0.704 0.23 0.152 0.55 0.088 0.7-0.148 1.93-2.954 3.9-4.441 5.48-5.637 1.54-1.161 2.75-2.078 3.3-3.776 0.67-2.064 0.23-3.259-0.19-4.414-0.65-1.798-1.32-3.657 1.97-9.635 1.6-2.898 1.94-5.332 1.02-7.236-0.09-0.181-0.27-0.287-0.46-0.287"/><path d="m1489.2 398.05c-0.07 0-0.14 0.013-0.2 0.042-0.26 0.112-0.38 0.412-0.27 0.67 1.08 2.457 0.48 4.296-0.27 6.626-1.16 3.595-2.6 8.07 1.11 16.902 0.1 0.259 0.4 0.382 0.66 0.272 0.26-0.109 0.38-0.407 0.27-0.666-3.56-8.485-2.18-12.76-1.07-16.196 0.78-2.434 1.46-4.535 0.24-7.345-0.09-0.191-0.27-0.305-0.47-0.305"/><path d="m1481 400.25c-0.22 0-0.42 0.146-0.49 0.369-1.34 4.684-1.1 9.76 0.66 14.29 0.1 0.262 0.4 0.391 0.66 0.289 0.26-0.103 0.39-0.397 0.29-0.659-1.69-4.324-1.91-9.168-0.63-13.64 0.08-0.27-0.08-0.552-0.35-0.629-0.04-0.013-0.09-0.02-0.14-0.02"/><path d="m1507.1 391.59c-0.27 0-0.49 0.204-0.51 0.471-0.34 4.687-2.72 6.827-5.02 8.897-2.52 2.263-5.12 4.604-4.74 10.045 0.02 0.281 0.29 0.495 0.54 0.472 0.28-0.019 0.49-0.262 0.48-0.542-0.35-4.947 1.85-6.927 4.4-9.219 2.34-2.102 4.98-4.484 5.35-9.578 0.02-0.281-0.19-0.524-0.47-0.545-0.01-1e-3 -0.02-1e-3 -0.03-1e-3"/><path d="m1444.8 408.76c-0.31 0.023-0.52 0.266-0.5 0.547 0.1 1.45 0.57 2.969 1.1 4.728 1.08 3.559 2.43 7.989 2 15.001-0.02 0.28 0.2 0.521 0.48 0.539 0.29 0.01 0.52-0.198 0.54-0.477 0.44-7.194-1-11.914-2.05-15.359-0.51-1.701-0.96-3.17-1.06-4.508-0.02-0.267-0.24-0.471-0.51-0.471"/><path d="m1447.9 402.18c-0.09 0-0.18 0.023-0.26 0.073-0.24 0.146-0.32 0.459-0.17 0.699 2.33 3.841 3.76 8.26 4.15 12.779 0.03 0.279 0.28 0.479 0.56 0.463 0.28-0.025 0.48-0.271 0.46-0.551-0.41-4.673-1.89-9.244-4.3-13.218-0.1-0.158-0.26-0.245-0.44-0.245"/><path d="m1424 391.08c-0.05 0-0.11 9e-3 -0.17 0.029-0.26 0.093-0.4 0.383-0.31 0.649 1.93 5.493 5.9 6.662 9.4 7.693 2.6 0.766 4.85 1.428 5.95 3.698 0.12 0.255 0.43 0.359 0.68 0.236 0.25-0.122 0.36-0.427 0.24-0.679-1.3-2.676-3.87-3.431-6.58-4.231-3.43-1.009-6.97-2.053-8.73-7.055-0.07-0.209-0.27-0.34-0.48-0.34"/></g><path d="m1034.1 443.09c-8.1-10.206-11.16-15.823-8.43-21.928 2.76-6.18 76.29-15.886 69.75 3.182-1.42 4.157-5.08 7.567-5.33 10.675-0.16 2.026 1.97 3.766 1.8 5.792-0.19 2.225-4.77 3.846-6.44 5.416-2.28 2.151-1.06 4.978-2.57 7.65-2.35 4.184-1.67 6.991-2.24 8.205-7.05 15.126-38.5 10.61-44.01 1.153-3.54-6.085 3.06-13.107-2.53-20.145" fill="#2f333e"/><path d="m1091.7 394.53c-13.46 9.445-25.98 9.233-20.87 33.753l-23.16 1.405c-0.95-18.198 0.28-19.488-7.54-26.214-1.72-1.481-12.7-7.608-12.7-7.608 17.42-15.094 49.25-13.845 64.27-1.336" fill="#fd9c8d"/><path d="m1038.2 462.22c-5.94-35.775 24.28-57.05 36.32-28.624 21.75 51.297-31.47 57.74-36.32 28.624" fill="#fd9c8d"/><path d="m1060.8 473.29c15-2.644 15.73-22.63 17.09-30.265 1.42 5.881 10.5 12.801 6.03 22.566-3.74 8.184-7.01 22.656-23.4 20.391-9.98-1.38-20.75-6.22-22.52-15.504-1.5-7.846-1.95-19.366 0.58-27.747 1.4 6.526 0.28 11.357 3.27 17.31 3.74 7.45 11.25 14.606 18.95 13.249" fill="#2f333e"/><g fill="#353b49"><path d="m1048.5 480.74c0.19 0.603 1.1 0.319 0.92-0.284-0.89-2.847-0.48-6.062 1.08-8.601 0.14-0.225 0.07-0.519-0.16-0.658-0.81-0.497-3.41 4.461-1.84 9.543"/><path d="m1071.5 469c2.49 0.917 4.3 3.406 4.42 6.056 0.02 0.632 0.98 0.587 0.95-0.042-0.13-3.022-2.2-5.864-5.04-6.91-0.59-0.219-0.92 0.677-0.33 0.896"/><path d="m1076.3 462.02c1.15 6e-3 2.26 0.841 2.59 1.942 0.18 0.605 1.09 0.336 0.91-0.27-0.44-1.513-1.91-2.619-3.49-2.628-0.64 2e-3 -0.63 0.952-0.01 0.956"/><path d="m1057.9 475.33c-2.25 3.909 0.93 8.993 1.9 7.964 0.18-0.192 0.17-0.494-0.03-0.675-1.8-1.7-2.26-4.692-1.04-6.812 0.31-0.548-0.51-1.024-0.83-0.477"/><path d="m1065.9 473.24c0.91 2.162 1.72 4.661 0.86 6.801-0.61 1.523 3.36 0.752 0.02-7.172-0.25-0.582-1.13-0.212-0.88 0.371"/><path d="m1043.2 465.29c-3.07 3.594-1.79 7.452-0.77 6.926 0.24-0.121 0.33-0.41 0.21-0.644-0.84-1.624-0.36-3.74 1.28-5.661 0.41-0.481-0.31-1.1-0.72-0.621"/></g><path d="m1080.1 449.64c-3.49 1.17-3.99-6.197-4.14-9.858-0.29-7.217 9.62 8.016 4.14 9.858" fill="#fd9c8d"/><path d="m1036.3 451.66c3.57 0.901 3.51-6.483 3.38-10.145-0.26-7.218-8.99 8.725-3.38 10.145" fill="#fd9c8d"/><path d="m1047.5 447.6c-1.22 0.046-2 4.722 0.96 4.609 1.58-0.061 1.04-4.685-0.96-4.609" fill="#382823"/><path d="m1068.4 446.8c1.22-0.046 2.35 4.556-0.61 4.668-1.58 0.06-1.39-4.592 0.61-4.668" fill="#382823"/><path d="m1050.3 457.79c1.94-0.359 1.66-1.906 0.18-2.11-1.99-0.274-2.52 1.088-6.6-0.446-4.49-1.685 0.38 3.68 6.42 2.556" fill="#353b4a"/><path d="m1066.4 456.99c-1.96 1e-3 -1.97-1.571-0.55-2.043 1.9-0.632 2.67 0.61 6.4-1.645 4.11-2.479 0.3 3.687-5.85 3.688" fill="#353b4a"/><g fill="#ee795c"><path d="m1055.2 439.78c4.13-1.865 3.92 0.136 2.67 0.098-4.16-0.127 0.06 1.514 0.45 8.38 0.04 0.722-0.8 0.759-0.91 0.169-0.08-0.408-0.18-1.917-0.29-2.344-1.37-5.313-3.24-5.707-1.92-6.303"/><path d="m1063.4 433.38c0.23 0.075 0.42-0.191 0.27-0.379-8.47-10.393-13.68 1.072-12.13 0.464 2.45-0.96 6.93-1.693 11.86-0.085"/><path d="m1036.9 448.02c0.11 0.333 0.61 0.154 0.5-0.175-0.7-2.005-0.13-3.217 0.69-3.707 0.12-0.075 0.16-0.238 0.09-0.364-0.5-0.835-2.28 1.379-1.28 4.246"/><path d="m1078.5 442.22c0.8 0.859 0.71 2.25 0.57 3.487-0.04 0.349 0.48 0.407 0.52 0.06 0.54-4.639-1.82-4.334-1.09-3.547"/><path d="m1049 424.57c7.84-6.998 18.33-3.075 20.84 1.633 1 1.837 0.55-4.15-8.34-5.732-9.81-1.746-14.77 6.123-12.5 4.099"/><path d="m987.6 232.25c1.697 0.314 1.726-2.854-0.494-2.445-0.73 0.135-1.311 0.746-1.552 1.448-1.167-1.173 1.083-3.242 0.074-4.495-1.91-2.375-13.158 7.887-6.865 14.413 1.345 1.394 2.001-0.394 2.867-1.431 5.82-6.976 12.911-5.109 5.97-7.49"/></g><path d="m996.17 249.59c29.851 66.282 30.621 80.915 30.571 109.71-5.58 0.88-11.07 2.652-16.61 3.429-2.84-7.887-4.35-34.062-4.19-35.049-2.28-20.491-14.3-73.663-14.3-73.663-2.061-0.442-5.332-2.878-14.519-8.438-1.438-0.871-1.593-1.238-1.982-2.924-1.345-5.826-3.44-5.135-1.428-9.406 3.559-7.557 7.299-11.013 7.916-8.295 0.683 3.008-8.942 9.864-0.993 16.243 5.64 4.526 7.751-3.06 5.221-5.891-0.691-0.773-3.089-2.184-2.628-5.356 8.308 1.894 8.422 9.818 10.467 13.903 0.483 0.964 2.244 3.394 2.475 5.737" fill="#ff9c8a"/><path d="m1025.9 397.89c-13.41-2.836-12.18-2.118-24.73-49.081-1.01-3.788 10.28-9.718 26.75-9.46 10.21 22.292 19.81 39.68 13.98 51.808-2.11 4.391-13.35 7.292-16 6.733" fill="#fffffb"/><path d="m1026 397.4-0.41-0.086c-11.69-2.466-11.69-2.466-21.31-38.74-0.81-3.038-1.68-6.329-2.64-9.893-0.14-0.547 0.06-1.176 0.6-1.868 2.34-2.999 11.71-7.118 25.35-6.968 1.13 2.463 2.25 4.866 3.34 7.208 8.7 18.642 15.57 33.367 10.51 43.887-1.94 4.032-12.79 7.021-15.44 6.46zm0.88-58.559c-12.8 0-22.6 3.736-25.43 7.357-0.73 0.939-1 1.887-0.77 2.74 0.95 3.565 1.82 6.854 2.63 9.892 9.79 36.87 9.79 36.87 22.07 39.463l0.41 0.086c3 0.632 14.35-2.428 16.55-7.005 5.26-10.948-1.69-25.862-10.5-44.744-1.14-2.431-2.3-4.927-3.47-7.489l-0.13-0.287-0.32-5e-3c-0.35-5e-3 -0.69-8e-3 -1.04-8e-3" fill="#f2e8de"/><path d="m1141 245.19c3.56-1.304 5.37-2.532 7.95-5.301 3.47-3.725 5.5-1.821 4.35-0.696-6.98 6.777-14.45 9.514-15.24 8.244 0.9-0.85 1.89-1.605 2.94-2.247" fill="#ee795c"/><path d="m1129.4 252.98c20.09-3.417 25.76-11.862 25.53-12.767-0.62-2.397-5.23 1.565-10.96 4.002-10.09 4.291-14.04-0.66-9.69-2.356 1.53-0.596 4.89-0.286 5.67-3.623 0.15-0.604-0.01-2.061-1.36-1.369-3.04 1.555-2.88-1.056-11.9 5.604-3.17 2.341-8.09 3.752-8.86 6.715-3.69 11.499-22.85 69.523-29.71 106.46-1.44 7.741 19.96 12.68 19.63 14.214 4.82-22.497 18.06-115.95 18.06-115.95s3.27-0.876 3.59-0.929" fill="#ff9c8a"/><path d="m1085.6 400.26c13.67-0.862 13.25 0.576 32.41-43.866 1.86-4.326-14.54-12.375-25.93-14.35-13.32 20.581-25.34 36.395-21.33 49.239 1.45 4.651 12.16 9.148 14.85 8.977" fill="#fffffb"/><path d="m1085.4 399.77c-2.93 0-12.88-4.44-14.19-8.632-3.48-11.141 5.44-24.715 16.74-41.9 1.42-2.157 2.88-4.369 4.35-6.64 10.04 1.824 22.81 7.946 25.02 12.024 0.33 0.617 0.4 1.132 0.21 1.578-18.43 42.754-18.66 42.768-30.72 43.489l-1.26 0.076c-0.05 3e-3 -0.1 5e-3 -0.15 5e-3zm6.42-58.271-0.18 0.278c-1.53 2.365-3.05 4.669-4.52 6.911-11.45 17.406-20.49 31.155-16.87 42.748 1.52 4.848 12.28 9.524 15.36 9.327l1.26-0.076c12.78-0.764 13.08-1.176 31.58-44.092 0.31-0.734 0.23-1.558-0.25-2.449-2.6-4.798-16.5-10.934-26.06-12.591l-0.32-0.056" fill="#f2e8de"/><path d="m1043.3 405.94c3.74-7.846 25.04-11.757 29.45 1.7 13.91-4.389 19.02-8.022 19.02-8.022 1.46-19.839 15.58-76.302 0.98-86.358-26.01-3.45-44.98-4.967-66.62-0.384-11.27 4.977-4.05 83.223-3.85 84.219 0 0 7.57 2.344 21.02 8.845" fill="#fffffb"/><path d="m1026.2 313.35c20.63-4.358 38.53-3.291 66.29 0.385 10.66 7.568 5.32 41.344 1.42 66.027-1.25 7.899-2.33 14.739-2.71 19.571-1.03 0.669-6.33 3.891-18.22 7.68-1.88-5.126-6.56-8.284-12.91-8.692-7.12-0.459-14.62 2.631-17.07 6.955-11.6-5.582-18.83-8.064-20.35-8.565-0.84-6.359-6.75-78.584 3.55-83.361zm27.68-3.846c-9.54-1e-3 -18.44 0.869-27.94 2.879l-0.1 0.032c-11.78 5.208-4.28 84.006-4.14 84.77l0.06 0.294 0.29 0.089c0.07 0.024 7.7 2.412 20.96 8.818l0.45 0.219 0.21-0.453c1.98-4.146 9.47-7.269 16.33-6.833 3.6 0.231 9.96 1.639 12.19 8.473l0.16 0.47 0.47-0.149c13.83-4.362 18.94-7.941 19.16-8.092l0.19-0.136 0.01-0.234c0.36-4.804 1.45-11.722 2.72-19.733 3.95-25.019 9.36-59.284-1.94-67.074l-0.1-0.068-0.12-0.016c-15.22-2.018-27.48-3.256-38.86-3.256" fill="#f2e8de"/><path d="m1034.1 46.713c2.67-7.7348 12.15-7.6789 13.5 1.1621l-0.11 21.375-16.87 0.1109 3.48-22.648" fill="#ff9c8a"/><path d="m1080 46.759c2.46-7.8039 11.93-8.0059 13.52 0.7941l0.47 21.372-16.85 0.5691 2.86-22.735" fill="#ff9c8a"/><path d="m1008.5 25.334c-0.5 0.7859-0.6 1.798-0.27 2.6699 0.97 2.5441 26.91 19.377 25.91 18.709 4.77-2.9598 11.12-1.4168 13.5 1.1621 1.66-3.4059 6.47-15.684 1.72-16.952-2.83-0.757-38.73-8.9089-40.86-5.589" fill="#f2e8de"/><g fill="#fffffb"><path d="m1008.9 25.603c1.74-2.7121 34.42 4.227 40.31 5.8028 0.59 0.157 1.01 0.5269 1.29 1.132 1.38 3.0293-1.34 10.781-3.04 14.496-2.72-2.3219-8.6-3.666-13.34-0.9059-3.25-2.0621-24.65-16.233-25.44-18.302-0.27-0.7282-0.19-1.5793 0.22-2.2231zm3.37-1.4992c-2.24 0-3.78 0.2813-4.21 0.9602-0.59 0.9187-0.71 2.0839-0.31 3.1168 0.92 2.4191 20.92 15.589 25.49 18.487l-0.04 0.0281 0.64 0.432 0.05-0.059c0.17 0.1071 0.27 0.1618 0.28 0.1618l0.36-0.0149 0.06-0.2019c4.58-2.6922 10.52-1.1172 12.66 1.2l0.49 0.5379 0.32-0.6579c1.43-2.9179 5.1-12.118 3.35-15.97-0.4-0.8812-1.05-1.4472-1.94-1.6851-0.31-0.084-26.61-6.3352-37.2-6.3352"/><path d="m1022.2 31.56c-1.04 0-2.23 0.3367-3.16 0.782-0.83 0.3918-1.87 1.0668-2.14 2.0539-0.14 0.532 0.17 1.082 0.71 1.2269 0.52 0.1469 1.08-0.1679 1.22-0.6988 0.05-0.1332 0.45-0.5254 1.33-0.8953 1.16-0.4797 2.21-0.543 2.53-0.4019 0.5 0.223 1.09-4e-3 1.32-0.5079 0.22-0.5043-0.01-1.0961-0.51-1.3199-0.37-0.166-0.82-0.239-1.3-0.239"/><path d="m1027.5 35.334c-2.07 0-4.1 1.0879-5.21 2.8488-0.29 0.4672-0.15 1.084 0.31 1.3793 0.47 0.293 1.09 0.1551 1.38-0.3121 0.82-1.3012 2.46-2.073 3.99-1.8879 0.54 0.0777 1.05-0.3199 1.12-0.8691 0.06-0.5481-0.32-1.0469-0.87-1.1149-0.24-0.0312-0.48-0.0441-0.72-0.0441"/><path d="m1032.2 38.985c-1.86 0-3.72 0.7027-5.1 1.9527-0.41 0.3699-0.44 1.0031-0.07 1.4121 0.37 0.4102 1 0.443 1.41 0.0711 1.16-1.0481 2.78-1.5691 4.33-1.4063 0.56 0.0602 1.05-0.3367 1.11-0.8847 0.05-0.55-0.34-1.043-0.89-1.1031-0.26-0.0278-0.52-0.0418-0.79-0.0418"/></g><path d="m1053.8 26.085c-1.44 2.3839 0.78 4.441 3.1 5.9328 10.81 6.964 23.11 14.741 23.11 14.741 4.68-3.0879 11.07-1.7192 13.52 0.7941 1.38-3.041 6.18-15.826 1.19-17.01-2.87-0.6809-38.87-7.87-40.92-4.4578" fill="#f2e8de"/><g fill="#fffffb"><path d="m1080 46.166c-1.86-1.1781-13.03-8.2488-22.84-14.568-3.95-2.5421-3.57-4.216-2.95-5.2539 1.69-2.789 34.23 3.2258 40.38 4.6848 0.63 0.1492 1.08 0.5231 1.39 1.1453 1.47 3.018-0.99 10.696-2.64 14.544-2.78-2.2461-8.68-3.4289-13.34-0.552zm-21.57-21.443c-2.72-0.0011-4.6 0.3161-5.07 1.104-1.3 2.1558-0.21 4.3812 3.26 6.6109 10.69 6.8859 22.99 14.665 23.11 14.743l0.27 0.1722 0.27-0.1761c4.53-2.9879 10.66-1.5661 12.89 0.725l0.51 0.525 0.3-0.6661c1.35-2.9519 4.76-12.231 2.9-16.028-0.43-0.8926-1.12-1.4578-2.05-1.6769-0.31-0.0731-25.3-5.3329-36.39-5.3329"/><path d="m1067 30.87c-0.05 0-0.1 0.0043-0.15 0.0121-1.18 0.177-4.76 0.7211-5.01 3.7219-0.05 0.55 0.36 1.034 0.91 1.0801 0.55 0.0488 1.04-0.3621 1.08-0.9121 0.06-0.6649 0.49-1.4828 3.32-1.9141 0.55-0.0816 0.92-0.5918 0.84-1.1387-0.07-0.4953-0.5-0.8492-0.99-0.8492"/><path d="m1072.2 34.724c-2.11 0.0871-4.13 1.2024-5.3 2.9114-0.32 0.455-0.2 1.0777 0.25 1.3898 0.46 0.3129 1.08 0.1969 1.39-0.2582 0.83-1.1996 2.24-1.9828 3.7-2.0438 0.55-0.0218 0.98-0.4878 0.96-1.0402-0.02-0.5379-0.47-0.959-1-0.959"/><path d="m1076.5 38.179c-1.67 0-3.69 1.075-4.43 2.0672-0.33 0.443-0.23 1.0687 0.21 1.398 0.44 0.3289 1.07 0.2368 1.4-0.207 0.5-0.675 2.41-1.4883 3.17-1.2109 0.52 0.1879 1.09-0.0774 1.28-0.5961 0.19-0.5192-0.07-1.093-0.59-1.2832-0.32-0.116-0.67-0.168-1.04-0.168"/></g><path d="m1055.3 57.482c-0.04-1.1789-1-2.1179-2.18-2.1238-28.56-0.1422-29.42-0.9262-29.53 1.9629-8.07 205.88-12.72 223.08 2.54 255.55 20-0.129 46.4-0.367 66.62 0.384 7.66-14.037 13.29-38.203 13.12-48.545l-5.28-206.92c-0.03-1.177-0.99-2.118-2.16-2.1301-28.38-0.2848-29.27-1.0738-29.39 1.8223l-7.87 191.66c-0.7 5.758-5.9-192.68-5.87-191.66" fill="#f6bb7e"/><path d="m1026.4 312.37c-12.17-26.053-11.4-43.791-6.46-156.93 1.15-26.324 2.58-59.086 4.11-98.097 0.07-1.7441 0.47-1.7871 14.39-1.6191 3.82 0.0472 8.61 0.1062 14.64 0.1363 0.91 0.0047 1.65 0.7227 1.68 1.6359 0.04 1.6079 1.3 49.633 2.61 95.876 0.79 27.826 1.45 50.005 1.97 65.921 0.99 30.413 1.07 30.42 1.72 30.474 0.08 8e-3 0.5 0.016 0.57-0.56l7.87-191.7c0.07-1.7477 0.47-1.7938 14.35-1.5508 3.79 0.0648 8.55 0.1469 14.53 0.2078 0.91 9e-3 1.65 0.7301 1.67 1.6422l5.28 206.92c0.18 10.632-5.53 34.318-12.91 48.021-18.85-0.688-42.94-0.527-62.31-0.398zm4.67-257.72c-7.56 0-7.94 0.4461-8.02 2.6461-1.53 39.008-2.96 71.769-4.11 98.093-4.96 113.77-5.73 131.26 6.69 157.69l0.14 0.289 4.35-0.028c19.46-0.13 43.7-0.291 62.58 0.409l0.31 0.012 0.14-0.272c7.52-13.788 13.36-37.967 13.18-48.793l-5.28-206.92c-0.04-1.4531-1.21-2.6031-2.66-2.6172-5.98-0.0598-10.73-0.143-14.52-0.2078-14.68-0.2531-15.26-0.2653-15.37 2.5097l-7.46 181.75c-1.53-39.055-5.25-180.12-5.28-181.75 0-0.0031-0.06-0.4832-0.06-0.4832-0.25-1.2199-1.32-2.1211-2.61-2.1277-6.03-0.0301-10.82-0.0891-14.64-0.1363-3.01-0.036-5.43-0.066-7.38-0.066" fill="#ce8b35"/><path d="m1092.7 313.26c-19.51-3.99-44.44-4.15-66.62-0.384-10.79 8.484 9.16 31.123 10.54 50.616 0.03 0.53 0.46 0.942 0.99 0.942 45.84 0 44.07 0.436 44.16-0.959 1.18-20.238 23.4-40.997 10.93-50.215" fill="#f6bb7e"/><g fill="#ce8b35"><path d="m1026.3 313.34c22.02-3.722 46.74-3.581 66.2 0.38 6.81 5.141 2.37 14.266-2.76 24.825-3.73 7.668-7.96 16.358-8.46 24.894l-0.01 0.171v0.127c-0.45 0.289-4.91 0.275-18.16 0.234-6.21-0.018-14.47-0.044-25.49-0.044-0.26 0-0.48-0.205-0.5-0.477-0.57-8.112-4.38-16.89-7.74-24.635-4.82-11.1-8.98-20.695-3.08-25.475zm32.9-3.693c-11.1 0-22.47 0.908-33.2 2.729l-0.12 0.022-0.1 0.078c-6.65 5.229-2.33 15.197 2.68 26.738 3.33 7.67 7.11 16.365 7.67 24.306 0.05 0.802 0.7 1.407 1.49 1.407 11.02 0 19.28 0.026 25.48 0.044 19.16 0.059 19.16 0.059 19.17-1.35v-0.124c0.49-8.336 4.68-16.931 8.37-24.515 5.35-11.004 9.98-20.508 2.37-26.131l-0.19-0.088c-10.15-2.075-21.73-3.116-33.62-3.116"/><path d="m1093.9 311.02c-23.58-2.674-56.32-2.757-68.8-0.094l1 1.95c-0.45 0.181-1.56 1.017-2.02 1.929 24.27-0.989 55.19-0.326 71.03 0.917-1.06-1.457-1.81-2.382-2.39-2.462l1.18-2.24"/><path d="m1025.8 311.28c12.62-2.465 44.11-2.401 67.27 0.151l-1.17 2.222 0.71 0.098c0.3 0.042 0.89 0.733 1.39 1.385-15.8-1.164-45.22-1.791-68.96-0.876 0.45-0.471 0.98-0.836 1.19-0.924l0.51-0.205zm28.93-2.803c-12.55 0-23.66 0.65-29.78 1.956l-0.64 0.136 1.07 2.103c-0.59 0.39-1.39 1.106-1.8 1.9l-0.39 0.763 0.86-0.035c24.43-0.993 55.27-0.315 70.97 0.916l1.08 0.085-0.64-0.877c-0.9-1.248-1.53-2.032-2.09-2.408l1.27-2.415-0.73-0.082c-12-1.36-26.34-2.042-39.18-2.042"/><path d="m1040.4 362.54-1.67-0.245c-0.39 11.894-4.8 25.545-5.73 38.971l1.39 0.593c1.19-13.399 6.09-31.875 6.01-39.319"/><path d="m1033.6 400.94c0.46-6.347 1.7-12.774 2.9-18.995 1.3-6.712 2.52-13.063 2.78-19.081l0.69 0.102c-0.06 3.844-1.3 10.465-2.63 17.459-1.26 6.712-2.69 14.288-3.31 20.699zm4.72-39.227-0.02 0.559c-0.2 6.104-1.45 12.603-2.78 19.485-1.23 6.364-2.5 12.946-2.95 19.469l-0.02 0.354 2.35 1.004 0.06-0.686c0.58-6.504 2.06-14.358 3.37-21.287 1.44-7.628 2.68-14.215 2.64-18.083v-0.427l-2.65-0.388"/><path d="m1077.8 362.06 1.67-0.245c0.39 11.894 4.9 27.76 5.82 41.186l-1.2 0.535c-1.2-13.399-6.37-34.032-6.29-41.476"/><path d="m1078.2 362.49 0.69-0.101c0.26 6.082 1.52 13.022 2.85 20.359 1.21 6.69 2.47 13.604 2.93 19.936l-0.25 0.111c-0.62-6.408-2.11-14.46-3.43-21.593-1.4-7.607-2.73-14.808-2.79-18.712zm1.65-1.253-2.64 0.389-0.01 0.427c-0.04 3.886 1.34 11.388 2.81 19.33 1.36 7.372 2.9 15.728 3.48 22.195l0.06 0.695 2.17-0.959-0.03-0.349c-0.44-6.482-1.73-13.555-2.97-20.396-1.36-7.525-2.65-14.632-2.85-20.772l-0.02-0.56"/></g><path d="m1041.6 362.29c1.67 3.26-3.12 3.089-3.92 1.607-1.13-2.109 2.39-4.609 3.92-1.607" fill="#fffffb"/><path d="m1076.3 362.3c-1.67 3.259 3.12 3.088 3.92 1.606 1.13-2.109-2.39-4.609-3.92-1.606" fill="#fffffb"/><path d="m1049.3 340.35c-0.14-0.932-0.53-4.066-0.58-9.284-0.01-0.58 0.02-0.581 0.49-0.598 6.07-0.212 12.22-0.209 18.28 0.014 0.08 4e-3 0.22 0.03 0.38 0.221 1.3 1.487 1.16 8.066 0.95 10.455-1.67 0.671-14.63 0.699-19.52-0.808zm8.86-11.038c-3 0-6 0.052-8.98 0.157-1.05 0.037-1.48 0.503-1.46 1.607 0.07 6.379 0.62 9.606 0.64 9.741l0.05 0.291 0.28 0.095c4.84 1.664 19.25 1.728 20.78 0.744 0.25-0.16 0.32-0.361 0.33-0.502 0.01-0.091 0.79-9.148-1.17-11.4-0.39-0.446-0.82-0.552-1.1-0.562-3.11-0.114-6.24-0.171-9.37-0.171" fill="#ce8b35"/><path d="m1048.9 341.22-0.05 2.689c-0.01 0.566 20.53 1.005 20.53 6e-3l-0.02-2.054c0-0.53-20.44-1.641-20.46-0.641" fill="#fffffb"/><path d="m1049.4 341.5c2.13-0.56 17.12 0.199 19.47 0.705v1.454c-2.07 0.594-17.15 0.322-19.51-0.09zm3.62-1.178c-4.38 0-4.61 0.329-4.62 0.894l-0.05 2.98 0.28 0.189c1.04 0.618 19.24 1.036 20.9 0.08 0.31-0.179 0.35-0.443 0.35-0.548l-0.02-2.054c0-0.537 0-0.738-6.05-1.139-3.44-0.229-7.33-0.382-10.14-0.4-0.22-1e-3 -0.44-2e-3 -0.65-2e-3" fill="#fffffb"/><g fill="#353b49"><path d="m1037.1 461.9c0.05 0.632 1 0.558 0.96-0.07-0.13-1.713 0.14-3.459 0.78-5.052 0.45-1.105-2.21-1.376-1.74 5.122"/><path d="m1078.8 454.43c1.68 1.319 2.89 3.281 3.3 5.382 0.12 0.619 1.05 0.437 0.93-0.183-0.45-2.324-1.78-4.493-3.64-5.952-0.5-0.388-1.09 0.363-0.59 0.753"/><path d="m1079.5 421.69c-6.9 10.234-2.48 12.058-2.76 10.311-0.59-3.709 1.81-7.202 3.55-9.778 0.35-0.523-0.44-1.057-0.79-0.533"/><path d="m1090.2 421.94c-1.88 3.906-3.89 4.828-5.04 6.959-2.71 5.006 2.36 7.709 2.12 10.976-0.07 0.866-0.7 1.859-1.6 1.956-0.64 0.07-0.53 1.016 0.09 0.951 1.36-0.142 4.03-1.903 1.02-7.042-3.97-6.754 1.09-6.763 4.27-13.386 0.12-0.238 0.02-0.524-0.22-0.638s-0.52-0.015-0.64 0.224"/><path d="m1082.7 426.05c-0.32 0.542 0.5 1.034 0.82 0.492 3.41-5.677 4.12-6.276 3.46-6.679-0.68-0.402-0.87 0.512-4.28 6.187"/><path d="m1028.2 422.04c-4.03 7.677 7.35 20.325 8.48 18.722 0.16-0.227 0.11-0.538-0.12-0.696-4.8-3.361-10.18-12.415-7.48-17.56 0.31-0.586-0.57-1.049-0.88-0.466"/><path d="m1032.3 420.84c0.41 1.546 0.21 2.642 0.01 3.701-0.86 4.686 3 9.066 3.76 8.398 0.21-0.183 0.23-0.498 0.05-0.706-5.5-6.258-1.56-6.77-2.85-11.647-0.17-0.641-1.13-0.384-0.97 0.254"/><path d="m1038.2 422.06c-0.77 0.247 0.07 1.627 0.41 2.373 0.85 1.826 1.82 3.895 1.01 6.118-0.52 1.43 3.39 0.959-0.1-6.541-0.65-1.393-0.68-2.155-1.32-1.95"/><path d="m1042.7 418.2c-0.58 0.193-0.26 0.796-0.05 1.372 0.47 1.287 1.26 3.44 1 4.723-0.18 0.899 2.35 2.348-0.32-5.778-0.08-0.265-0.37-0.403-0.63-0.317"/><path d="m1072.4 426c0.27 0.016 0.51-0.194 0.53-0.47 0.17-2.94 1.24-5.453 2.8-6.56 0.23-0.16 0.28-0.472 0.12-0.697-1.32-1.864-5.42 7.638-3.45 7.727"/></g><g fill="#ce8b35"><path d="m1061.3 251.52c-0.2 0-0.38 0.116-0.46 0.309-3.41 8.199-4.99 17.221-4.57 26.091 0.01 0.275 0.24 0.491 0.52 0.476 0.27-0.014 0.49-0.247 0.47-0.523-0.41-8.723 1.15-17.597 4.5-25.661 0.11-0.255-0.01-0.547-0.27-0.654-0.06-0.026-0.13-0.038-0.19-0.038"/><path d="m1017.4 271.24c-0.15 0-0.29 0.062-0.39 0.182-0.17 0.213-0.14 0.528 0.07 0.704l0.74 0.61c6.52 5.353 9.22 7.569 13.34 34.555 0.04 0.273 0.3 0.46 0.57 0.419 0.27-0.042 0.46-0.297 0.42-0.57-4.18-27.365-6.97-29.652-13.7-35.177l-0.73-0.609c-0.1-0.076-0.21-0.114-0.32-0.114"/><path d="m1101.7 271.37c-0.07 0-0.15 0.018-0.23 0.055-8.55 4.397-9.87 5.073-18.79 36.443-0.07 0.266 0.08 0.542 0.35 0.618 0.26 0.076 0.54-0.08 0.61-0.345 8.81-30.952 10.07-31.601 18.29-35.826 0.25-0.126 0.34-0.428 0.22-0.673-0.09-0.173-0.27-0.272-0.45-0.272"/></g><path d="m1051.1 310.62c-8.46 0-16.21 0.501-24.87 1.734-0.27 0.039-0.46 0.293-0.42 0.566s0.3 0.465 0.56 0.425c19.85-2.83 34.95-1.779 65.01 0.312l0.86 0.06c0.28 0.015 0.51-0.189 0.53-0.465 0.02-0.275-0.19-0.514-0.46-0.533l-0.86-0.06c-17.06-1.186-29.31-2.039-40.35-2.039" fill="#f6bb7e"/><path d="m994.79 250.58c-0.053 0-0.106 9e-3 -0.16 0.026-1.214 0.409-2.27 1.283-2.895 2.4-0.135 0.24-0.049 0.544 0.192 0.68 0.242 0.135 0.546 0.049 0.68-0.192 0.506-0.902 1.36-1.61 2.343-1.941 0.261-0.087 0.402-0.371 0.314-0.632-0.071-0.209-0.265-0.341-0.474-0.341" fill="#ee795c"/><path d="m1121.2 250.84c-0.04 0-0.08 1e-3 -0.12 2e-3 -0.28 7e-3 -0.5 0.238-0.49 0.514s0.23 0.491 0.51 0.486c1.15-0.041 2.34 0.533 3.03 1.482 0.17 0.223 0.48 0.271 0.7 0.108 0.23-0.163 0.27-0.475 0.11-0.698-0.86-1.176-2.28-1.894-3.74-1.894" fill="#ee795c"/><path d="m1668.9 450.04c-0.14-11.328-3.89-19.729 16.94-29.533-12.4-17.062-24.61-23.367-24.61-23.367s-26.13 11.763-35.11 19.545c4.67 3.399 9.55 5.939 13.85 8.967 8.52 5.981 3.49 19.271 5.16 24.178l23.77 0.21" fill="#fda98b"/><path d="m1672.7 488.73c-10.09 14.108-33.9 10.544-36.67-11.104-2.75-21.473 7.64-38.382 13.68-40.035 5.47-1.498 10.87-2.159 15.44 0.933 12.01 8.124 16.65 37.477 7.55 50.206" fill="#fda98b"/><path d="m1641.5 478.74c0.33 0.641 0.46 1.377 0.87 1.964 1.23 1.745 3.96 1.227 5.87 2.177 1.29 0.643 2.49 2.032 3.86 1.58 1.01-0.333 1.57-1.589 2.62-1.73 0.94-0.125 1.89 0.731 2.78 0.395 1-0.377 1.76-3.23 5.51-2.127 6.21 1.828 10.09-0.585 10.68-1.939 2.59-5.993 2.92-14.437 2.47-20.712 0.28 0.413 4.41 16.765 6.16 29.384 0.76 5.444-2.42 10.656-7.58 12.553-2.96 1.088-7.94-0.588-9.9 2.697-2.68 4.511-9.24 2.683-13.15 1.402-4.33-1.416-8.17-0.675-9.56-2.219-1.3-1.446 1.7-6.014-3.31-5.773-4.75 0.228-6.88-5.317-3.76-8.335-5.36 0.433-2.9-9.176-3-10.642-0.38-5.468-1.68 0.061 4.03-15.997 0.95 10.655 4.31 15.142 5.41 17.322" fill="#cd805f"/><path d="m1633.6 468.03c4.1 1.206 4.36-7.384 4.37-11.647 0.02-8.405-10.83 9.748-4.37 11.647" fill="#fda98b"/><path d="m1634.5 463.83c0.12 0.392 0.71 0.207 0.59-0.182-0.72-2.362 0-3.746 0.97-4.28 0.15-0.082 0.2-0.27 0.12-0.418-0.55-0.994-2.71 1.501-1.68 4.88" fill="#ee795c"/><path d="m1679.4 468.14c-4.1 1.205-4.36-7.384-4.37-11.647-0.02-8.405 10.83 9.748 4.37 11.647" fill="#fda98b"/><path d="m1678.5 463.94c-0.12 0.393-0.71 0.208-0.59-0.181 0.73-2.362 0.01-3.746-0.96-4.28-0.15-0.082-0.21-0.27-0.12-0.419 0.54-0.993 2.71 1.502 1.67 4.88" fill="#ee795c"/><path d="m1647 464.4c-1.34 0-2.39 5.109 0.87 5.109 1.74 0 1.33-5.109-0.87-5.109" fill="#382823"/><path d="m1667 464.19c1.34 0 2.4 5.109-0.86 5.109-1.74 0-1.34-5.109 0.86-5.109" fill="#382823"/><path d="m1645.2 440.91c0.17 0.13 0.41 0.098 0.54-0.069 3.53-4.571 15.97-6.123 21.94 0.402 0.34 0.375 0.91-0.146 0.57-0.52-8.82-9.632-25.26-1.518-23.05 0.187" fill="#ee795c"/><path d="m1651.4 474.51c-4.36 1.879-13.12-1.52-10.68-2.521 0.8-0.327 3.4 0.627 4.33 0.703 1.89 0.153 5.3-0.757 6.5 0.229 0.49 0.405 0.41 1.35-0.15 1.589" fill="#cd805f"/><path d="m1661.4 473.44c1.09-1.11 4.58-0.574 6.43-0.929 0.93-0.177 3.4-1.405 4.23-1.166 2.54 0.732-5.82 5.101-10.34 3.659-0.64-0.204-0.77-1.108-0.32-1.564" fill="#cd805f"/><path d="m1654.7 456.08c-0.14 0.567 0.83 0.619 1.43 0.754 2.22 0.495 2.32-0.592 1.29 8.715-0.2 1.818-0.51 2.793 0.14 2.844 0.61 0.039 0.45-0.682 0.68-2.753 1.11-10.11 1.14-8.868-3.05-9.865-0.21-0.052-0.44 0.081-0.49 0.305" fill="#ee795c"/><path d="m1662.2 449.22c-1.27-3.827-9.29-7.368-10.46-0.87-0.04 0.182 0.12 0.347 0.3 0.315 1.34-0.235 6.07-0.884 9.79 0.879 0.21 0.103 0.45-0.096 0.37-0.324" fill="#fff5ed"/><g fill="#b37658"><path d="m1646.6 486.52c-1.29 3.238-2.65 7.301-6.07 8.521-1.68 0.596 2.27 2.305 5.54-5.127-0.55 2.779-3.11 5.368-3.37 8.457-0.04 0.519 0.74 0.577 0.78 0.064 0.36-4.288 4.35-5.648 3.12-11.915"/><path d="m1641.1 479.74c-0.22 0-0.39 0.178-0.39 0.396 0.02 2.737-1.72 6.167-5 7.134-0.5 0.146-0.28 0.898 0.22 0.753 5.19-1.53 6.25-8.283 5.17-8.283"/><path d="m1636.2 472.03c-2.5 3.085 0.22 6.398-2.27 9.251-0.34 0.391 0.25 0.907 0.6 0.516 2.75-3.151 0.03-6.496 2.28-9.273 0.33-0.403-0.28-0.897-0.61-0.494"/><path d="m1678.8 481.88c0.11 0.507 0.88 0.338 0.76-0.169-0.5-2.271-0.88-4.593-1.13-6.9-0.11-1.001-1.48-1.313 0.37 7.069"/><path d="m1672.8 481.8c-0.55 0.175-0.14 0.853 0.34 2.391 3.33 10.706 7.69 10.891 6.44 9.597-4.34-4.508-4.18-5.084-6.29-11.733-0.06-0.208-0.29-0.32-0.49-0.255"/><path d="m1663.7 493c1.87 2.143 3.81 4.359 4.86 6.395 0.37 0.728 2.41 0.801-4.31-6.88-2.58-2.953-5.25-6.007-5.77-8.736-0.11-0.567-3.73-1.019 5.22 9.221"/><path d="m1651.2 485.7c-1.37 4.658 6.72 13.516 7.54 12.516 0.14-0.168 0.11-0.415-0.05-0.552-7.54-6.184-7.01-12.231-7.01-12.231-0.21-0.061-0.42 0.058-0.48 0.267"/><path d="m1669.6 490.78c0.38 0.358 0.92-0.209 0.55-0.568-0.9-0.857-3-3.14-3.13-5.812-0.07-1.544-2.76 1.274 2.58 6.38"/><path d="m1661.4 503.74c0.52-0.03 0.47-0.812-0.04-0.783-6.62 0.389-11.02-1.12-13.47-4.614-1.49-2.132-0.79 6.238 13.51 5.397"/></g><path d="m1741.3 235.38c0.57 0.573 7.04 6.728 6.58 7.383-1.23 1.736-0.72 1.628-4.11-1.319-8.52-7.389-4.88-8.502-2.47-6.064" fill="#d76a54"/><path d="m1744.8 225.92c-1.99 0.997-0.21 7.787 0.44 9.959-2.35-5.66-6.62-6.429-5.35-3.256 1.69 4.258 3.38 8.517 5.07 12.777-0.1-0.27 4.87-5.316 5.02-5.915 0.21-0.855-0.33-1.946-0.56-2.755-2.29-8.256-2.74-11.758-4.62-10.81" fill="#ee795c"/><path d="m1734.9 265.83c0.73 0.235 1.53 0.324 2.26 0.096 2.83-0.881 21.59-37.27 21-38.27-0.23-0.398-0.78-0.471-1.24-0.411-4.44 0.584-4.17 6.73-13.95 18.389-3.79 4.51-6.99 1.946-6.17-2.66 1.18-6.601-1.7-6.842-2.21-5.285-4.6 14.066-3.51 10.21-3.07 16.85 0.26 4.105-2.32 9.452 3.38 11.291" fill="#fda98b"/><path d="m1685.3 49.083c5.27-2.6621 12.24 3.7867 12.24 3.7867l0.98 10.481-15.74 0.5968 2.52-14.865" fill="#fda98b"/><path d="m1724.4 28.754c4.88-0.7328 7 0.5359 7.78 1.984 1.74 3.268-0.68 1.5281-34.6 23.091 0 0-5.26-5.2418-12.61-3.1148-12.18-28.728-6.95-14.989 39.43-21.96" fill="#373535"/><g fill="#f2e8de"><path d="m1712 37.13c-0.22 0-0.42 0.1367-0.48 0.3519-0.08 0.2649 0.07 0.5442 0.33 0.625 2.48 0.7641 3.66 1.2672 4.6 2.8821 0.14 0.239 0.44 0.3199 0.68 0.1828 0.24-0.1379 0.32-0.4438 0.18-0.6828-1.14-1.9809-2.71-2.5832-5.17-3.3371-0.05-0.0161-0.09-0.0219-0.14-0.0219"/><path d="m1705.2 40.257c-0.27 0-0.49 0.2071-0.5 0.4731-0.02 0.2758 0.19 0.5109 0.47 0.5258 2.52 0.132 4.95 1.1101 6.86 2.7523 0.21 0.1789 0.53 0.1559 0.71-0.0531 0.18-0.2102 0.15-0.5262-0.06-0.7051-2.07-1.7859-4.72-2.8488-7.46-2.9918-0.01-0.0012-0.02-0.0012-0.02-0.0012"/><path d="m1700 43.882c-0.25 0-0.46 0.1852-0.49 0.4391-0.04 0.273 0.16 0.523 0.43 0.557 2.47 0.3028 5.28 0.6469 7.44 2.118 0.23 0.1527 0.54 0.0949 0.7-0.134 0.15-0.2281 0.09-0.5391-0.13-0.6941-2.37-1.6059-5.3-1.9649-7.89-2.2821-0.02-0.0027-0.04-0.0039-0.06-0.0039"/></g><path d="m1601.5 47.309c5.12-2.9418 12.43 3.123 12.43 3.123l1.53 10.413-15.68 1.4442 1.72-14.98" fill="#fda98b"/><path d="m1639.5 24.906c8.54-1.7571 9.51 3.3543 6.93 4.8511-11.35 6.5801-21.63 13.97-32.36 21.629 0 0-5.54-4.9519-12.76-2.432-13.71-28.03-7.75-14.594 38.19-24.048" fill="#373535"/><g fill="#f2e8de"><path d="m1627.5 33.937c-0.22 0-0.43 0.152-0.48 0.3789-0.07 0.268 0.09 0.5391 0.36 0.607 2.52 0.6282 3.73 1.0661 4.75 2.629 0.15 0.2312 0.46 0.2949 0.69 0.146 0.23-0.1511 0.3-0.4609 0.14-0.6921-1.25-1.9168-2.85-2.4329-5.34-3.0539-0.04-0.0098-0.08-0.0149-0.12-0.0149"/><path d="m1621 37.423c-0.25 2e-3 -0.52 0.2168-0.52 0.5012 0 0.2746 0.22 0.4988 0.5 0.4988 2.53 0 5.01 0.8438 7 2.379 0.22 0.1671 0.53 0.1269 0.7-0.0918 0.17-0.2192 0.13-0.5332-0.09-0.7012-2.16-1.668-4.86-2.586-7.59-2.586"/><path d="m1616 41.321c-0.26 0-0.48 0.2019-0.5 0.466-0.02 0.275 0.19 0.5149 0.46 0.5328 2.49 0.1692 5.3 0.361 7.55 1.7141 0.24 0.139 0.55 0.066 0.69-0.1711 0.14-0.2359 0.06-0.5438-0.17-0.6859-2.46-1.477-5.4-1.6778-8-1.8551-0.01-8e-4 -0.02-8e-4 -0.03-8e-4"/></g><path d="m1604.7 318.13c-5.26-93.4-6.83-260.85-5.81-261.04 7.13-1.2929 11.81-2.609 18.93-0.5469 1 0.2899 23.2 96.177 31.84 182.35 7.19-65.653 30.78-182.57 32.59-182.82 7.26-0.9867 19.03-0.6777 19.07 1.7082 0.25 14.483 2.16 240.47-15.27 257.89 0 0-31.52-1.143-81.35 2.46" fill="#323d4d"/><g fill="#f2e8de"><path d="m1647.5 246.31-1.03 0.123c2.21 18.716 1.44 30.605 0.89 39.286-0.5 7.686-0.79 12.325 1.42 16.317l0.91-0.506c-2.06-3.725-1.77-8.248-1.29-15.744 0.56-8.721 1.33-20.665-0.9-39.476"/><path d="m1652 274c-0.33 0-0.67 0.032-1.02 0.064-0.71 0.067-1.45 0.135-2.29-0.03l-0.2 1.024c0.98 0.195 1.83 0.116 2.58 0.045 1.02-0.093 1.62-0.126 2.14 0.322 1.72 1.485 2.72 8.633 3.68 26.373l1.04-0.057c-1.13-20.946-2.25-25.562-4.04-27.106-0.59-0.507-1.22-0.635-1.89-0.635"/><path d="m1682 65.028c-3.23 23.565-5.95 43.538-8.26 60.572-11.65 85.707-13.15 96.719-19.97 115.94l0.99 0.349c6.85-19.321 8.35-30.344 20.01-116.15 2.32-17.033 5.03-37.008 8.27-60.57l-1.04-0.143"/><path d="m1605.4 260.74-0.88 0.563c5.44 8.505 12.47 18.862 18.35 27.03l0.85-0.61c-5.87-8.153-12.89-18.492-18.32-26.983"/></g><path d="m1640.8 426.35c2.31-5.589 25.61-18.874 34.71 0.227l25.54-7.397c3.52-104.52 4.28-137.77 0.65-138.57-28.39-6.287-54.8 15.442-87.69 35.066-2.98 69.191-0.56 103.14-0.56 103.15 0 0 8.31 3.692 27.35 7.529" fill="#fffffb"/><g fill="#f2e8de"><path d="m1636.2 385.04c-1.35 0-2.42-0.18-3.84-1.366-1.45-1.214-1.9-3.122-2.34-4.967-0.24-1.007-0.48-2.048-0.89-2.955-0.7-1.557-1.72-2.836-2.71-4.073-2.69-3.366-4.82-6.025 1.92-12.284 14.33-13.292 21.67-9.74 28.77-6.302 2.64 1.275 5.36 2.593 8.39 3.046 2.09 0.315 5.49-0.11 9.09-0.558 6.29-0.784 14.12-1.758 16.36 1.205 0.97 1.28 0.86 3.329-0.31 6.09-3.54 8.36-3.6 14.599-3.64 18.727-0.03 2.8-0.05 4.651-1.05 5.615-0.78 0.752-2.25 1.051-4.72 0.977-1.95-0.061-3.91-0.419-5.82-0.766-1.97-0.359-4.01-0.731-6.07-0.785-2.55-0.068-5.12 0.347-7.6 0.748-3.53 0.571-6.86 1.11-10.15 0.383-1.55-0.341-2.94-0.745-4.28-1.134-2.55-0.742-4.97-1.443-8.05-1.608-0.83-0.045-1.54-0.026-2.18-8e-3 -0.31 8e-3 -0.6 0.015-0.88 0.015zm10.34-36.253c-4.94 0-10.89 2.336-18.94 9.808-7.48 6.95-4.84 10.26-2.04 13.766 0.95 1.183 1.93 2.408 2.57 3.838 0.37 0.812 0.59 1.758 0.83 2.759 0.48 2.019 0.97 4.107 2.7 5.553 2.03 1.694 3.53 1.654 5.45 1.604 0.64-0.018 1.31-0.035 2.09 7e-3 2.96 0.158 5.31 0.842 7.81 1.566 1.36 0.395 2.76 0.803 4.34 1.152 3.5 0.772 7.09 0.19 10.56-0.372 2.44-0.392 4.95-0.796 7.4-0.734 1.98 0.052 3.98 0.416 5.91 0.768 1.94 0.354 3.95 0.719 5.98 0.782 2.79 0.086 4.49-0.308 5.5-1.279 1.34-1.283 1.36-3.426 1.39-6.392 0.04-4.042 0.1-10.15 3.56-18.311 1.35-3.191 1.4-5.537 0.17-7.173-2.62-3.466-10.45-2.491-17.37-1.63-3.52 0.439-6.85 0.852-8.79 0.562-2.86-0.429-5.39-1.653-8.07-2.949-3.41-1.649-6.87-3.324-11.05-3.325"/><path d="m1638.4 373.8c-1.36 0-2.42-0.181-3.84-1.366-1.45-1.214-1.9-3.123-2.34-4.968-0.24-1.007-0.49-2.047-0.89-2.955-0.7-1.556-1.73-2.835-2.72-4.072-2.69-3.366-4.81-6.024 1.93-12.283 14.33-13.295 21.67-9.74 28.77-6.302 2.64 1.274 5.36 2.592 8.38 3.046 2.1 0.313 5.5-0.111 9.1-0.559 6.29-0.784 14.12-1.759 16.36 1.205 0.96 1.28 0.86 3.329-0.31 6.09-3.54 8.36-3.6 14.599-3.64 18.727-0.03 2.8-0.05 4.65-1.05 5.615-0.79 0.752-2.25 1.053-4.72 0.976-1.95-0.06-3.92-0.419-5.82-0.765-1.97-0.36-4.01-0.731-6.07-0.785-2.56-0.071-5.12 0.347-7.6 0.748-3.53 0.57-6.86 1.11-10.16 0.383-1.54-0.341-2.93-0.744-4.27-1.134-2.56-0.743-4.97-1.443-8.05-1.608-0.83-0.045-1.55-0.026-2.18-9e-3 -0.31 9e-3 -0.6 0.016-0.88 0.016zm10.34-36.252c-4.94-1e-3 -10.89 2.335-18.94 9.808-7.49 6.948-4.84 10.259-2.04 13.764 0.95 1.184 1.93 2.409 2.57 3.839 0.37 0.812 0.59 1.758 0.83 2.758 0.48 2.02 0.97 4.107 2.7 5.554 2.03 1.694 3.54 1.655 5.44 1.604 0.65-0.018 1.32-0.035 2.1 7e-3 2.96 0.158 5.31 0.842 7.8 1.566 1.36 0.395 2.77 0.803 4.35 1.152 3.5 0.772 7.09 0.19 10.56-0.371 2.43-0.393 4.95-0.796 7.4-0.736 1.98 0.053 3.97 0.417 5.9 0.768 1.95 0.354 3.95 0.721 5.99 0.783 2.79 0.085 4.49-0.308 5.5-1.28 1.34-1.281 1.36-3.424 1.39-6.391 0.04-4.042 0.1-10.15 3.55-18.311 1.36-3.191 1.41-5.537 0.18-7.174-2.62-3.465-10.46-2.491-17.37-1.629-3.52 0.439-6.85 0.853-8.79 0.563-2.86-0.43-5.39-1.654-8.07-2.95-3.41-1.649-6.87-3.324-11.05-3.324"/><path d="m1639.8 396.55c-1.35 0-2.41-0.181-3.83-1.366-1.45-1.214-1.91-3.123-2.34-4.968-0.24-1.007-0.49-2.048-0.9-2.954-0.7-1.557-1.72-2.836-2.71-4.073-2.69-3.366-4.81-6.025 1.93-12.284 14.32-13.294 21.67-9.739 28.77-6.302 2.63 1.275 5.36 2.593 8.38 3.046 2.09 0.313 5.49-0.11 9.1-0.558 6.29-0.784 14.12-1.758 16.35 1.205 0.97 1.28 0.87 3.329-0.3 6.09-3.54 8.36-3.6 14.599-3.64 18.727-0.03 2.8-0.05 4.651-1.06 5.615-0.78 0.752-2.24 1.052-4.71 0.976-1.95-0.06-3.92-0.418-5.82-0.765-1.97-0.36-4.01-0.731-6.08-0.785-2.54-0.066-5.11 0.347-7.59 0.748-3.53 0.571-6.86 1.11-10.16 0.383-1.54-0.341-2.93-0.745-4.27-1.135-2.56-0.741-4.97-1.442-8.05-1.607-0.83-0.046-1.55-0.026-2.19-8e-3 -0.31 8e-3 -0.6 0.015-0.88 0.015zm10.34-36.253c-4.94 0-10.88 2.336-18.93 9.808-7.49 6.949-4.84 10.26-2.04 13.765 0.95 1.184 1.93 2.408 2.57 3.839 0.36 0.812 0.59 1.758 0.83 2.758 0.47 2.02 0.97 4.108 2.7 5.554 2.03 1.694 3.53 1.656 5.44 1.604 0.65-0.017 1.32-0.035 2.1 7e-3 2.95 0.158 5.31 0.842 7.8 1.566 1.36 0.395 2.77 0.803 4.35 1.151 3.49 0.773 7.09 0.191 10.56-0.37 2.43-0.393 4.95-0.792 7.39-0.735 1.99 0.052 3.98 0.416 5.91 0.768 1.94 0.354 3.95 0.719 5.99 0.782 2.79 0.087 4.49-0.308 5.5-1.279 1.34-1.283 1.36-3.426 1.39-6.392 0.04-4.042 0.1-10.15 3.55-18.311 1.35-3.191 1.41-5.537 0.17-7.173-2.61-3.466-10.45-2.492-17.36-1.63-3.53 0.439-6.86 0.852-8.8 0.562-2.86-0.429-5.39-1.653-8.06-2.95-3.41-1.648-6.87-3.323-11.06-3.324"/></g><path d="m1742.7 263.65c-7.77-4.61-16.26-5.556-17.35-3.214-17.16 36.846-36.16 80.286-36.22 123.82-0.03 21.385 2.46 34.926 11.93 34.926 15.65 0 42.64-154.94 41.64-155.53" fill="#ffba58"/><path d="m1701.1 418.68c-2.16 0-3.94-0.728-5.43-2.225-4.17-4.178-6.02-14.109-6-32.201 0.06-42.528 17.9-84.383 36.17-123.61 0.18-0.369 0.66-0.584 1.03-0.699 2.76-0.854 9.25 0.415 15.39 4.004-0.1 3.136-5.72 36.493-13.19 71.201-6.95 32.276-16.96 72.667-25.14 81.795-1.03 1.15-1.98 1.733-2.83 1.733zm27.77-159.97c-0.91 0-1.68 0.096-2.29 0.284-0.83 0.254-1.38 0.669-1.64 1.232-18.32 39.326-36.21 81.297-36.27 124.03-0.03 18.378 1.91 28.528 6.29 32.909 1.67 1.671 3.73 2.518 6.14 2.518 4.92 0 10.9-13.067 18.29-39.948 7.14-25.99 13.66-58.205 16.91-75.094 2.02-10.504 3.89-20.832 5.26-29.083 2-11.997 1.8-12.117 1.43-12.335-5.13-3.049-10.59-4.512-14.12-4.512" fill="#ce8b35"/><path d="m1635 340.78c-7.54-33.051 2.07-9.54-16.74-83.692-1.08-4.252-2.24-6.112-6.94-6.019-11.11 0.22-26.43 9.739-27.36 11.635-2.4 4.903 20.6 65.773 21.12 67.174l6.68 87.733c5.67 3.345 29.14 8.93 28.99 8.53-11.3-30.055-3.31-74.67-5.75-85.361" fill="#ffba58"/><path d="m1612.2 417.31-6.67-87.538-0.14-0.379c-10.72-28.562-22.66-63.107-21.02-66.467 0.75-1.547 15.67-11.132 26.92-11.355 4.26-0.074 5.35 1.335 6.45 5.642 11.64 45.906 12.39 54.435 13.05 61.961 0.42 4.687 0.81 9.114 3.68 21.72 0.78 3.401 0.47 10.423 0.09 19.314-0.78 17.98-1.96 45.039 5.41 65.365-3.96-0.703-22.48-5.325-27.77-8.263zm-0.59-166.74c-0.11 0-0.23 1e-3 -0.34 3e-3 -11.4 0.226-26.8 9.864-27.8 11.915-2.24 4.585 15.49 52.639 20.98 67.258l0.09 0.245 6.7 87.921 0.23 0.133c4.8 2.837 28.66 9.268 29.56 8.493l0.27-0.227-0.12-0.341c-7.6-20.215-6.41-47.597-5.62-65.717 0.39-8.966 0.69-16.048-0.11-19.58-2.86-12.539-3.25-16.933-3.66-21.585-0.67-7.563-1.42-16.135-13.09-62.119-1.11-4.397-2.42-6.399-7.09-6.399" fill="#ce8b35"/><path d="m1627.6 302.18c0.25 0.704 0.02 1.62 0.38 2.372 0.45 0.919 1.28 1.634 2.09 2.26 1.98 1.526 4.17 2.532 6.55 3.299 1.58 0.506 3.14 1.06 4.74 1.437 0.83 0.194 2.51 0.843 3.22 0.491 0.72-0.36 1.11-1.792 0.76-2.466-0.67-1.293-3.13-2.509-4.37-3.07-1.97-0.893-4.31-1.679-6.43-2.098-2.25-0.449-4.44-1.223-6.94-2.225" fill="#fda98b"/><path d="m1650.4 286.38c-2.24-2.653-12.71-2.85-15.36 1.499l-1.82 25.562c6.36-4.491 17.95-3.961 22.35-1.096l-5.17-25.965" fill="#d7d7d7"/><path d="m1655 314.56c0.85-0.8-6.08-2.874-10.82-2.486-4.6 0.376-11.41 2.959-10.67 3.689 1.75 1.716 19.93 0.251 21.49-1.203" fill="#e6501f"/><path d="m1635.9 315.45c-1.25 0.364 5.76 0.66 8.44 0.463 17.59-1.287 2.46-3.61-8.44-0.463" fill="#475978"/><path d="m1656.2 313.49c-0.24 0.343-0.58 0.607-1.18 1.074-5.2-2.393-15.02-1.946-21.49 1.203-6.63-3.831 15.77-9.596 22.49-3.732 0.42 0.367 0.5 0.998 0.18 1.455" fill="#475978"/><path d="m1653.7 295.84 0.45 2.303c0.14 0.704-0.35 1.374-1.05 1.443-3.86 0.383-7.55 0.637-8.5 0.85 3.1-0.112 6.17-0.398 8.85-0.58 0.58-0.04 1.11 0.379 1.22 0.973l0.34 1.722c0.14 0.727-0.38 1.413-1.1 1.446-3.73 0.174-8.88 0.244-15.59 0.598-10.78 0.567-14.05 1.101-16.1 1.078-0.43-4e-3 -1.43-4.179-1.61-4.576-0.42-0.964-0.37-2.588-0.24-3.407 0.64-4.304 4.66-4.575 5.64-5.036 4.01-1.873 0.95-3.534 10.78-4.724 4.28-0.519 10.12-1.367 14.1-1.443 0.58-0.012 1.07 0.396 1.19 0.975l0.2 1.031c0.12 0.657-0.28 1.294-0.92 1.427-2.55 0.527-5.9 0.856-8.64 1.368 0.07-2e-3 4.4-0.635 8.83-1.012 0.6-0.052 1.14 0.364 1.26 0.969l0.4 2.037c0.13 0.703-0.35 1.379-1.05 1.442-3.16 0.29-6.33 0.393-7.97 0.52 1.79 0.21 4.98-0.127 8.27-0.376 0.59-0.045 1.13 0.373 1.24 0.972" fill="#fda98b"/><path d="m1567.2 338.71c-3.94-15.496 34.33-36.822 52.72-45.605 2.47-1.183 7.24 15.156 6.24 16.13-2.96 2.885-19 18.337-33.17 28.714 9.41 6.264 6.76 18.557 14.34 22.465 2.8 36.732 2.93 38.183 4.36 57.201-16.97 0-37.83-52.758-44.49-78.905" fill="#ffba58"/><path d="m1567.7 338.58c-3.34-13.149 26.16-32.476 52.44-45.031 0.14-0.065 0.41 0.177 0.49 0.251 2.46 2.318 5.62 13.979 5.15 15.134-3.01 2.909-18.96 18.262-33.07 28.604l-0.58 0.423 0.6 0.397c4.74 3.157 6.31 7.834 7.82 12.356 1.38 4.106 2.68 7.991 6.32 10.004l2.37 31.074c0.72 9.476 1.11 14.579 1.92 25.297-15.92-1.109-36.37-50.643-43.46-78.509zm52.5-46.047c-0.17 0-0.33 0.038-0.49 0.114-9.64 4.604-57.48 28.467-52.98 46.179 6.81 26.781 27.66 79.282 44.97 79.282h0.54l-0.04-0.538c-0.84-11.1-1.23-16.216-1.97-25.854l-2.41-31.626-0.25-0.127c-3.46-1.787-4.67-5.392-6.07-9.567-1.44-4.287-3.06-9.124-7.64-12.465 14.03-10.372 29.64-25.403 32.66-28.344 1.25-1.211-2.26-12.457-4.53-15.713-0.62-0.892-1.22-1.341-1.79-1.341" fill="#ce8b35"/><path d="m1714 261.4c4.32 2.311-6.28 148.25-12.92 157.78-41.08 11.897-19.47 12.079-15.56-24.758 4.9-46.101 6.92-126.57 8.06-137.66 0.32-3.189 16.87 2.741 20.42 4.64" fill="#ffba58"/><path d="m1677.2 425.82c-0.18 0-0.3-0.03-0.36-0.092-0.23-0.269 0.64-2.137 1.4-3.784 2.19-4.692 6.26-13.424 7.75-27.47 3.33-31.296 5.31-78.016 6.62-108.93 0.62-14.618 1.07-25.179 1.43-28.731 0.01-0.084 0.04-0.174 0.22-0.266 2.46-1.315 16.11 3.511 19.45 5.283 1.7 1.965 0.54 35.534-2.65 76.54-2.84 36.398-7.12 75.15-10.33 80.382-6.84 1.985-11.93 3.639-15.65 4.849-3.75 1.219-6.83 2.22-7.88 2.22zm18.33-170.47c-0.74 0-1.34 0.096-1.74 0.313-0.55 0.294-0.71 0.732-0.74 1.048-0.37 3.581-0.81 14.155-1.44 28.789-1.31 30.903-3.29 77.604-6.62 108.87-1.47 13.88-5.49 22.514-7.65 27.152-1.32 2.822-1.92 4.11-1.24 4.87 0.81 0.917 2.78 0.278 9.29-1.84 3.75-1.219 8.88-2.888 15.8-4.891l0.17-0.049 0.1-0.145c6.87-9.866 16.26-145.47 13.44-157.25-0.17-0.709-0.38-1.083-0.69-1.252-2.27-1.216-13.69-5.612-18.68-5.612" fill="#ce8b35"/><path d="m1586 335.6c-0.17 0-0.33 0.088-0.43 0.246-0.14 0.238-0.06 0.545 0.18 0.685 1.56 0.916 3.29 1.523 5.07 1.785-2.81 2.315-4.34 6.146-3.79 9.761 0.04 0.273 0.3 0.457 0.57 0.419 0.27-0.042 0.46-0.297 0.42-0.57-0.56-3.681 1.26-7.609 4.44-9.553l1.38-0.849-1.62-0.077c-2.09-0.098-4.16-0.713-5.96-1.777-0.08-0.047-0.17-0.07-0.26-0.07" fill="#ce8b35"/><path d="m1293.7 436.12c1.57-4.432-12.24-10.122-27.75-10.122-15.5 0-30.51 6.138-28.04 10.141 2.26 3.654 12.45 1.015 27.95 1.015 15.51 0 25.71 4.962 27.84-1.034" fill="#efbea9"/><path d="m1244.5 437.62c-3.21 0-5.33-0.398-6.15-1.721-0.28-0.453-0.27-0.944 0.05-1.5 2-3.598 14.77-7.944 27.6-7.944 12.89 0 24.31 3.918 26.9 7.578 0.49 0.69 0.63 1.341 0.42 1.934-1.23 3.462-5.53 2.89-12.63 1.941-4.05-0.539-9.09-1.211-14.78-1.211-5.3 0-9.89 0.301-13.94 0.568-2.89 0.19-5.4 0.355-7.47 0.355zm21.5-12.079c-13.35 0-26.23 4.522-28.4 8.413-0.48 0.847-0.48 1.685-0.03 2.424 1.63 2.642 6.46 2.325 14.46 1.799 4.04-0.265 8.61-0.566 13.88-0.566 5.63 0 10.63 0.667 14.65 1.203 7.31 0.975 12.14 1.618 13.62-2.541 0.31-0.877 0.12-1.834-0.54-2.768-2.7-3.83-14.04-7.964-27.64-7.964" fill="#efbea9"/><path d="m1276.2 448.46c-0.13-11.328-3.89-19.729 16.95-29.534-12.4-17.062-24.62-23.366-24.62-23.366s-26.13 11.762-35.11 19.545c4.67 3.399 9.55 5.939 13.86 8.966 8.51 5.982 3.49 19.272 5.15 24.179l23.77 0.21" fill="#fda98b"/><path d="m1280 487.14c-10.09 14.108-33.89 10.544-36.66-11.104-2.75-21.473 7.64-38.382 13.68-40.035 5.47-1.499 10.87-2.16 15.44 0.933 12.01 8.124 16.64 37.477 7.54 50.206" fill="#fda98b"/><path d="m1250.6 501.53c-16.01-12.765-11.13-21.056-7-41.033-1.67 10.821 10.98 28.125 8.87 23.726-6.67-13.916 3.07-0.87 17.27-6.794 1-0.417 1.8-0.232 5.79 0.928 4.13 1.197 9.05-15.049 9.05-15.049 4.23 7.056 4.73 19.135 4.73 19.135-1.31 23.671-30.71 27.654-32.72 18.875-1.24 0.05-4.12 1.701-5.99 0.212" fill="#7b3b23"/><g fill="#682c1c"><path d="m1256.9 500.98c0.27-0.014 0.49-0.248 0.47-0.524-0.06-1.226 0.03-5.516 3.72-9.216 0.2-0.195 0.2-0.512 0-0.706-1.61-1.609-6.75 10.551-4.19 10.446"/><path d="m1245.4 485.43c-1.22 0.191 0.88 8.649 7.78 12.873 0.56 0.345 1.08-0.507 0.52-0.852-4.1-2.512-6.99-6.85-7.73-11.603-0.04-0.268-0.29-0.459-0.57-0.418"/><path d="m1253.1 486.17c0.45 0.26 1.97 2.138 1.28 4.581-0.17 0.636 0.79 0.903 0.97 0.269 0.8-2.886-0.9-5.225-1.75-5.714-0.57-0.33-1.07 0.534-0.5 0.864"/><path d="m1243.2 474.37c-1.43 5.918-1.84 6.151-1.14 6.346 0.79 0.216 0.88-1.035 2.11-6.111 0.16-0.642-0.81-0.877-0.97-0.235"/><path d="m1272.2 499.45c-2.69 2.639-8.65 4.086-12.01 1.926-0.24-0.149-0.55-0.082-0.69 0.15-1.01 1.565 8.12 3.808 13.4-1.363 0.47-0.463-0.23-1.176-0.7-0.713"/><path d="m1274.4 491.11c-3.39 3.535-8.19 2.426-10.59 0.819-0.23-0.153-0.54-0.092-0.69 0.137-0.75 1.125 7.09 4.857 12-0.265 0.46-0.476-0.26-1.168-0.72-0.691"/><path d="m1263.6 498.57c4.2 1.097 3.85-1.79 2.76-1.12-1.07 0.656-3.64 0.236-4.36-1.063-0.63-1.121-2.24 1.182 1.6 2.183"/><path d="m1269.7 479.08c0.68 2.215-0.42 5.058-2.36 6.085-0.58 0.31-0.11 1.191 0.47 0.882 2.37-1.255 3.66-4.58 2.84-7.261-0.2-0.631-1.15-0.337-0.95 0.294"/><path d="m1255.4 479.99c0 3.468 5.44 7.872 5.81 6.133 0.06-0.269-0.11-0.534-0.39-0.592-1.64-0.346-4.42-3.553-4.42-5.541 0-0.661-1-0.661-1 0"/><path d="m1276.6 479.83c1.46 1.944 2.64 4.253 1.31 7.959-0.22 0.619 0.71 0.96 0.94 0.337 1.49-4.163 0.1-6.834-1.46-8.897-0.39-0.527-1.19 0.075-0.79 0.601"/><path d="m1284.5 474.26c-1 0.375-0.03 0.25 1.34 5.954 0.16 0.643 1.13 0.408 0.97-0.234-0.22-0.909-1.43-6.05-2.31-5.72"/><path d="m1286 486.78c-0.5 3.093-2.95 7.348-6.02 8.828-0.25 0.119-0.35 0.418-0.23 0.666 1.3 2.691 9.22-9.513 6.83-9.906-0.28-0.043-0.53 0.143-0.58 0.412"/></g><path d="m1240.9 466.44c4.11 1.206 4.36-7.384 4.37-11.647 0.02-8.405-10.83 9.748-4.37 11.647" fill="#fda98b"/><path d="m1241.8 462.24c0.12 0.393 0.71 0.207 0.59-0.181-0.72-2.362-0.01-3.746 0.96-4.28 0.15-0.082 0.21-0.27 0.13-0.419-0.55-0.993-2.72 1.502-1.68 4.88" fill="#ee795c"/><path d="m1286.7 466.56c-4.1 1.205-4.36-7.384-4.37-11.647-0.02-8.405 10.84 9.747 4.37 11.647" fill="#fda98b"/><path d="m1285.8 462.36c-0.12 0.392-0.71 0.207-0.59-0.181 0.72-2.362 0-3.747-0.97-4.28-0.15-0.082-0.2-0.27-0.12-0.419 0.55-0.993 2.71 1.502 1.68 4.88" fill="#ee795c"/><path d="m1254.3 462.82c-1.34 0-2.4 5.11 0.86 5.11 1.74 0 1.34-5.11-0.86-5.11" fill="#382823"/><path d="m1274.3 462.61c1.34 0 2.39 5.109-0.87 5.109-1.74 0-1.33-5.109 0.87-5.109" fill="#382823"/><path d="m1252.6 439.33c0.17 0.13 0.41 0.098 0.54-0.069 3.53-4.571 15.96-6.123 21.94 0.401 0.34 0.376 0.91-0.145 0.56-0.519-8.81-9.632-25.25-1.518-23.04 0.187" fill="#ee795c"/><path d="m1258.7 473.07c-4.41 1.757-13.07-1.882-10.61-2.816 0.81-0.305 3.38 0.72 4.31 0.822 1.88 0.205 5.32-0.609 6.49 0.409 0.48 0.419 0.37 1.36-0.19 1.585" fill="#7b3b23"/><path d="m1268.7 471.62c1.13-1.059 4.59-0.365 6.46-0.636 0.94-0.135 3.46-1.249 4.28-0.973 2.5 0.847-6.04 4.832-10.5 3.186-0.63-0.233-0.71-1.142-0.24-1.577" fill="#7b3b23"/><path d="m1262.1 454.5c-0.14 0.567 0.82 0.619 1.43 0.754 2.21 0.495 2.31-0.592 1.28 8.716-0.2 1.817-0.5 2.793 0.14 2.843 0.62 0.039 0.45-0.682 0.68-2.753 1.12-10.11 1.14-8.868-3.04-9.865-0.22-0.052-0.44 0.081-0.49 0.305" fill="#ee795c"/><path d="m1258.3 446.58c-0.62 0.929 1.22 0.697 12.09 1.828 2.79 0.29-6.86-9.602-12.09-1.828" fill="#fff5ed"/><path d="m1301.2 43.775c3.76-2.8961 7.87-3.6332 13.18-0.5738l-0.75 26.053-16.81-0.473 4.38-25.006" fill="#fda98b"/><path d="m1316.6 27.301c-1.75-1.2762-1.5-0.925-39.57-2.7352-7.62-0.3621-7.95 3.5699-4.01 6.0242 6.01 3.7348 27.71 15.749 29.09 14.939 1.16-0.6809 3.93-2.1789 6.04-2.2168 2.84-0.0512 6.38 0.507 6.62 0.0598 2.58-4.7008 6.17-12.916 1.83-16.071" fill="#f2e8de"/><path d="m1301.8 45.101c-1.99 0-21.58-10.624-28.52-14.936-1.63-1.0187-2.49-2.316-2.18-3.3027 0.4-1.2832 2.61-1.9492 5.91-1.7973 8.41 0.4012 14.95 0.6954 20.05 0.9243 17.84 0.8031 18.01 0.8187 19.25 1.716 4 2.914 0.55 10.791-1.91 15.31-0.38 0.0782-1.61-0.0019-2.6-0.0648-1.15-0.0738-2.46-0.1559-3.66-0.1379-2.16 0.0391-4.86 1.4488-6.28 2.2859-0.02 2e-3 -0.04 0.0032-0.06 0.0032zm-25.69-21.057c-3.31 0-5.46 0.9-5.97 2.52-0.45 1.4589 0.55 3.1629 2.62 4.45 3.1 1.9281 27.64 16.103 29.6 14.946 1.08-0.634 3.8-2.1122 5.79-2.1481 1.17-0.0199 2.45 0.0621 3.59 0.1348 2.42 0.1562 3.19 0.1801 3.47-0.3348 2.63-4.7883 6.34-13.326 1.68-16.716-1.48-1.082-1.48-1.082-19.78-1.9063-5.11-0.2289-11.64-0.5226-20.05-0.9226-0.33-0.0152-0.64-0.0231-0.95-0.0231" fill="#fffffb"/><path d="m1318.3 34.369c1.41-6.6961-2.36-7.6949-4.74-8.05-1-0.148-39.55-3.0761-41.86-1.0281-0.37 0.3238-1.3 1.082-1.2 2.2129l47.8 6.8652" fill="#f2e8de"/><path d="m1318.4 34.38c0.3-1.1199 0.54-2.284 0.48-3.4871-0.05-1.1809-0.4-2.4801-1.32-3.4149-0.9-0.9461-2.16-1.3902-3.33-1.65-1.24-0.2461-2.34-0.307-3.51-0.4539-4.61-0.4824-9.24-0.7754-13.86-1.1004-4.64-0.1816-9.27-0.4109-13.92-0.3687-2.32 0.0379-4.64 0.0789-6.97 0.2621-1.17 0.1168-2.33 0.2308-3.5 0.5457l-0.44 0.1512c-0.15 0.0629-0.31 0.1769-0.44 0.2691-0.21 0.2-0.43 0.4188-0.61 0.6637-0.36 0.4851-0.58 1.1172-0.48 1.7113l0.1-9e-3c-0.05-0.5683 0.19-1.1242 0.56-1.5543 0.18-0.2199 0.39-0.4117 0.61-0.6008 0.12-0.0691 0.24-0.1429 0.37-0.1929l0.41-0.118c1.12-0.2371 2.29-0.2902 3.44-0.3402 2.31-0.0918 4.62-0.0571 6.94-0.0129 4.63 0.1058 9.25 0.3301 13.87 0.5918 4.63 0.25 9.25 0.5402 13.86 0.8781 1.15 0.1039 2.32 0.1332 3.45 0.323 1.12 0.2071 2.26 0.5829 3.09 1.3879 0.85 0.7762 1.24 1.9352 1.35 3.0653 0.11 1.1457-0.04 2.3008-0.25 3.4328l0.1 0.0211" fill="#fffffb"/><path d="m1293.2 40.879c1.31-1.7371 3.1-3.1059 5.12-3.9137l-5.12 3.9137" fill="#f2e8de"/><path d="m1298.2 36.501c-2.12 0.8468-3.96 2.2578-5.33 4.0769l0.8 0.6008c1.26-1.673 2.95-2.9699 4.9-3.7508l-0.37-0.9269" fill="#fffffb"/><path d="m1289.5 38.618c-0.1-1.5418 2.99-3.4391 4.43-4.084l-4.43 4.084" fill="#f2e8de"/><path d="m1293.7 34.078c-0.05 0.0207-4.87 2.2481-4.73 4.5707l1-0.0617c-0.07-1.0512 2.36-2.8031 4.14-3.5973l-0.41-0.9117" fill="#fffffb"/><path d="m1285.5 36.338c0.86-2.1109 3.19-3.0711 4.86-3.7758l-4.86 3.7758" fill="#f2e8de"/><path d="m1290.2 32.101c-1.82 0.7699-4.21 1.7789-5.13 4.0488l0.93 0.375c0.76-1.8859 2.93-2.802 4.51-3.4699l-0.12-0.493-0.19-0.4609" fill="#fffffb"/><path d="m1274.6 30.402c0.75-3.434 5.76-2.8969 9.27-2.9l-9.27 2.9" fill="#f2e8de"/><path d="m1281.3 26.973c-3.13 0-6.46 0.336-7.11 3.3231l0.98 0.2129c0.57-2.6328 4.24-2.5731 7.49-2.5211 0.45 0.0082 0.91 0.025 1.29 0.0141v-1c-0.41 0.014-0.83-0.0071-1.27-0.0141-0.45-0.0078-0.92-0.0149-1.38-0.0149" fill="#fffffb"/><path d="m1239 34.583c0.31-1.1203 0.54-2.2832 0.49-3.4871-0.05-1.1813-0.4-2.4801-1.32-3.4152-0.91-0.9457-2.17-1.3887-3.34-1.65-1.24-0.2457-2.34-0.3071-3.5-0.4539-4.62-0.4821-9.24-0.775-13.87-1.1-4.63-0.1821-9.27-0.411-13.91-0.3692-2.33 0.0383-4.65 0.0793-6.98 0.2621-1.17 0.1172-2.33 0.2321-3.5 0.5461l-0.44 0.152c-0.14 0.0621-0.31 0.1761-0.44 0.2679-0.21 0.2012-0.43 0.4192-0.61 0.6653-0.36 0.484-0.58 1.116-0.47 1.7097l0.1-0.0089c-0.06-0.5668 0.18-1.1239 0.55-1.554 0.18-0.2199 0.4-0.4121 0.62-0.6011 0.12-0.0688 0.23-0.143 0.36-0.193l0.41-0.1168c1.12-0.2379 2.29-0.291 3.44-0.341 2.31-0.0922 4.63-0.057 6.94-0.0121 4.63 0.1051 9.25 0.3301 13.88 0.591 4.62 0.25 9.24 0.5398 13.86 0.8781 1.15 0.1039 2.32 0.134 3.45 0.3239 1.12 0.2082 2.26 0.5832 3.08 1.3871 0.85 0.7781 1.24 1.9351 1.36 3.0648 0.11 1.1461-0.04 2.3012-0.26 3.4332l0.1 0.0211" fill="#fff"/><path d="m1221.5 44.12 13.31-1.275 2.38 24.733-16.28-0.4582 0.59-23" fill="#fda98b"/><path d="m1237.2 27.504c-1.75-1.2758-1.5-0.925-39.56-2.7348-7.62-0.3621-7.96 3.57-4.02 6.0239 6.01 3.7359 27.72 15.749 29.09 14.939 3.9-2.2941 5.88-2.6699 12-1.8191 1 0.1391 7.74-12.588 2.49-16.409" fill="#f2e8de"/><path d="m1222.4 45.304c-2 0-21.59-10.624-28.52-14.936-1.64-1.0192-2.5-2.316-2.19-3.3032 0.4-1.2828 2.61-1.9488 5.91-1.7968 8.41 0.4011 14.95 0.6949 20.05 0.9242 17.84 0.8027 18.02 0.8187 19.25 1.716l0.29-0.4043-0.29 0.4043c1.29 0.9398 1.88 2.5867 1.75 4.8949-0.25 4.6071-3.21 9.9598-4.01 10.598-5.97-0.825-8.15-0.4762-12.19 1.9008-0.02 0.0011-0.03 0.0019-0.05 0.0019zm-25.69-21.057c-3.31 0-5.47 0.9-5.98 2.5199-0.45 1.4594 0.55 3.1633 2.62 4.4512 3.1 1.9269 27.64 16.102 29.61 14.945 3.65-2.15 5.52-2.6109 11.67-1.7547 1.28 0.1887 3.35-4.9262 3.44-5.1441 1.1-2.7282 3.25-9.375-0.58-12.165-1.49-1.082-1.49-1.082-19.79-1.9058-5.1-0.2289-11.64-0.5231-20.05-0.9231-0.32-0.0148-0.64-0.023-0.94-0.023" fill="#fffffb"/><g fill="#fff"><path d="m1219 36.668c-0.06 0-0.13 0.0109-0.19 0.0359-2.11 0.8481-3.96 2.2582-5.33 4.0781-0.16 0.2211-0.12 0.534 0.1 0.7 0.22 0.1649 0.54 0.1239 0.7-0.098 1.26-1.6738 2.96-2.9719 4.9-3.752 0.26-0.1031 0.39-0.3941 0.28-0.65-0.08-0.1949-0.26-0.314-0.46-0.314"/><path d="m1214.5 34.237c-0.06 0-0.13 0.0141-0.2 0.0438-0.05 0.0211-4.87 2.2492-4.73 4.5711 0.02 0.2761 0.26 0.4949 0.53 0.4691 0.28-0.0172 0.49-0.2539 0.47-0.5289-0.06-1.0524 2.37-2.8051 4.14-3.5992 0.25-0.1121 0.36-0.4078 0.25-0.6598-0.08-0.1863-0.27-0.2961-0.46-0.2961"/><path d="m1210.8 32.304c-1.82 0.7699-4.21 1.7793-5.13 4.0492-0.1 0.2559 0.02 0.5469 0.28 0.652 0.25 0.1027 0.55-0.0211 0.65-0.277 0.76-1.8851 2.93-2.8011 4.51-3.4691l-0.12-0.4942-0.19-0.4609"/><path d="m1201.9 27.177c-3.13 0-6.46 0.3351-7.11 3.3222-0.06 0.2688 0.12 0.536 0.38 0.5949 0.28 0.0571 0.54-0.1132 0.6-0.382 0.57-2.6332 4.25-2.575 7.49-2.5211 0.45 0.0078 0.91 0.0289 1.29 0.0141 0.28 0 0.5-0.225 0.5-0.5 0-0.277-0.22-0.5-0.5-0.5-0.41 0.0148-0.83-0.0071-1.27-0.0141-0.45-0.0082-0.91-0.014-1.38-0.014"/></g><path d="m1314.2 314.88c0.11-4.518 6.56-266.12 3.04-266.46-2.57-0.2488-19.74-1.5309-20.31 1.0582-20.42 93.05-29.94 183.94-29.94 183.94-11.3-71.739 1.32-70.666-27.71-182.34-0.59-2.2578-21.04-3.5847-21.03-0.209 0.09 20.982 1.15 275.81 0 257.72 13.37 0.91 95.95 6.289 95.95 6.289" fill="#748999"/><g fill="#3d4a61"><path d="m1267.1 237.26 0.4-3.794c0.09-0.909 9.75-91.929 29.93-183.89 0.34-1.5289 11.72-1.4309 19.55-0.6898 2.2 6.291-0.36 146.21-3.24 264.96l-0.01 0.497c-6.93-0.452-80.19-5.226-94.73-6.208 0.07-1.479 0.1-4.137 0.14-8.917 0.07-6.235 0.11-15.417 0.13-27.29 0.04-20.191 0.02-48.506-0.06-84.159-0.13-58.815-0.37-119.66-0.45-136.91 0-0.3039 0.54-0.7457 2.07-1.0777 5.63-1.234 17.41 0.1789 17.98 1.4218 18.58 71.497 20.11 97.244 21.73 124.5 0.93 15.723 1.9 31.982 5.96 57.78zm38.95-189.91c-4.74 0-9.25 0.4269-9.59 2.018-17.88 81.427-27.5 162.12-29.54 180.24-3.58-23.613-4.49-39.022-5.38-53.95-1.62-27.308-3.16-53.103-21.77-124.7-0.58-2.2589-12.54-3.0539-17.76-2.3789-2.86 0.3731-4.25 1.125-4.25 2.2981 0.11 25.104 0.98 238.37 0.23 257.2l-0.27-0.019 0.04 0.569c0.06 0.964 0.06 1.424 0.63 1.387 0.28-0.01 0.44-0.015 0.54-0.872 15.16 1.025 94.44 6.189 95.25 6.242l0.52 0.034 0.04-1.538c0.43-17.701 1.91-80.072 2.95-139.48 2.22-126.22 0.58-126.38-0.39-126.47-0.43-0.0406-5.98-0.5687-11.25-0.5687"/><path d="m1267.2 242.8c-0.26 0-0.49 0.196-0.52 0.46-2.22 18.812-1.46 30.756-0.9 39.478 0.49 7.494 0.78 12.018-1.29 15.743-0.14 0.252-0.04 0.569 0.21 0.708s0.57 0.049 0.71-0.203c2.21-3.992 1.91-8.63 1.42-16.315-0.56-8.682-1.33-20.571 0.89-39.287 0.03-0.287-0.17-0.546-0.46-0.58-0.02-3e-3 -0.04-4e-3 -0.06-4e-3"/><path d="m1235.8 53.106c-0.05 0-0.09 5e-3 -0.13 0.0171-0.28 0.0711-0.45 0.3551-0.38 0.6352 13.35 51.899 17.14 96.395 19.91 128.88 1.83 21.41 3.14 36.878 6.4 46.061 0.1 0.27 0.4 0.415 0.67 0.316 0.27-0.095 0.41-0.394 0.32-0.666-3.22-9.055-4.53-24.467-6.35-45.799-2.77-32.526-6.57-77.072-19.94-129.06-0.06-0.2359-0.27-0.3921-0.5-0.3921"/><path d="m1220.2 247.42c-0.16 0-0.32 0.073-0.42 0.212-0.17 0.232-0.12 0.559 0.11 0.729 11.73 8.625 11.76 11.489 11.92 27.382 0.02 1.855 0.04 3.883 0.08 6.115 0 0.285 0.24 0.512 0.52 0.512 0.3-6e-3 0.53-0.243 0.52-0.531-0.04-2.228-0.06-4.254-0.08-6.106-0.15-15.958-0.19-19.278-12.35-28.212-0.09-0.068-0.2-0.101-0.3-0.101"/><path d="m1314 247.62c-0.02 0-1.97 0.067-1.97 0.067-13.41 0.447-13.42 0.799-13.68 19.229-0.03 2.414-0.07 5.148-0.14 8.243-0.01 0.288 0.22 0.527 0.51 0.534 0.29 0 0.53-0.226 0.53-0.509 0.08-3.1 0.11-5.837 0.15-8.254 0.12-9.023 0.19-13.552 1.74-15.759 1.5-2.127 4.65-2.233 10.92-2.442l1.95-0.066c0.29-0.011 0.52-0.253 0.51-0.54-0.01-0.281-0.24-0.503-0.52-0.503"/><path d="m1267.4 235.12c-0.02 0-0.05 1e-3 -0.07 3e-3 -0.31 0.028-0.56 0.242-0.64 0.545-0.66 2.52-3 4.571-5.55 4.876-0.28 0.034-0.49 0.293-0.45 0.579 0.03 0.287 0.29 0.499 0.57 0.456 2.75-0.328 5.2-2.294 6.2-4.892 2.65 5.003 6.6 5.971 9.27 5.235 0.28-0.078 0.44-0.365 0.36-0.642-0.08-0.278-0.36-0.44-0.64-0.364-2.4 0.668-6.03-0.348-8.4-5.379-0.12-0.258-0.37-0.417-0.65-0.417"/></g><path d="m1235.6 398.43c1.45-30.264-2.34-122.72-33.19-132.49-44.98-9.149-15.85 31.922-18.15 52.871-1.85 16.826 9.06 31.451 8.12 41.921-2.04 22.883 5.04 33.63 12.9 42.541 4.4 4.986 7.39 9.682 14.69 10.36 6.44 0.598 15.33-9.052 15.63-15.204" fill="#ffe6d9"/><path d="m1220.5 413.16c-0.18 0-0.35-8e-3 -0.52-0.024-6.15-0.571-9.18-4.133-12.69-8.257-0.54-0.635-1.1-1.283-1.67-1.936-7.27-8.24-14.85-18.973-12.78-42.166 0.42-4.663-1.4-9.952-3.5-16.077-2.65-7.707-5.65-16.442-4.62-25.833 0.7-6.385-1.48-14.627-3.59-22.599-2.9-10.96-5.89-22.294-0.83-27.657 3.54-3.754 10.73-4.468 21.97-2.18 28.83 9.129 34.59 94.455 32.79 131.98-0.16 3.221-2.92 7.771-6.71 11.064-2.72 2.368-5.55 3.69-7.85 3.69zm-29.29-149.02c-5.41 0-9.25 1.259-11.64 3.786-5.44 5.769-2.51 16.859 0.6 28.6 2.08 7.883 4.24 16.034 3.55 22.234-1.05 9.613 1.99 18.461 4.67 26.266 2.07 6.017 3.85 11.214 3.45 15.664-2.1 23.587 5.62 34.52 13.03 42.916 0.57 0.649 1.12 1.292 1.65 1.923 3.66 4.291 6.81 7.996 13.37 8.605 2.68 0.246 5.93-1.138 9.12-3.907 4.04-3.513 6.88-8.243 7.04-11.771 0.84-17.42-0.2-48.019-4.48-74.037-3.93-23.945-12.17-53.61-29.05-58.952-4.34-0.884-8.1-1.327-11.31-1.327" fill="#ffcbb2"/><path d="m1247.3 424.07c6.16-15.193 30.6-15.26 36.9 0 6.96-0.296 23-5.011 27.27-8 9.85-6.881 18.77-142.13 4.64-152.34-34.39-2.603-63.14-0.621-97.83 3.395-21.32 5.819-1.67 144.91-1.41 145.92 8.3 4.353 31.43 11.356 30.43 11.028" fill="#ffe6d9"/><path d="m1217.3 412.72c-0.93-6.043-19.29-139.54 1.09-145.1 34.67-4.009 63.13-5.983 97.52-3.39 4.69 3.665 7.25 23.29 7 53.943-0.35 44.473-6.28 93.678-11.74 97.497-4.17 2.912-19.62 7.466-26.67 7.893-3.08-7.07-10.28-11.405-18.87-11.403-8.51 0.027-15.61 4.349-18.64 11.314-3.12-0.953-22.08-6.84-29.69-10.751zm67.93-150.66c-22.03 0-43.03 1.802-67.03 4.581-22.06 6.014-2.19 145.18-1.83 146.54l0.06 0.212 0.19 0.102c5.57 2.921 25.31 9.827 30 10.89 0 4e-3 0.51 0.171 0.51 0.171l0.02-0.065c0.01 2e-3 -0.01 0.069-0.01 0.069l0.02-0.067c0.24 0.037 0.39 0.041 0.44 5e-3l0.25-0.178-0.03-0.23c3.35-8.024 11.38-10.909 17.81-10.93h0.07c6.5 0 14.63 2.917 18.02 11.111l0.13 0.324 0.35-0.015c6.99-0.298 23.21-5.061 27.54-8.09 6.35-4.435 11.85-57.408 12.17-98.309 0.15-18.346-0.64-49.866-7.52-54.844l-0.12-0.083-0.14-0.011c-10.76-0.813-20.94-1.183-30.9-1.183" fill="#ffcbb2"/><path d="m1367.2 345.24c1.72-3.763 4.71-13.864 3.69-17.872-0.78-3.019-6.69-21.114-19.89-26.86-13.88-6.037-18.3-23.621-29.73-14.726-6.14 7.784-10.08 24.463-10.08 24.463-6.83 15.563 7.8 7.203 18.77 22.457 2.01 2.796 1.84 4.126-1.06 6.525-26.92 22.261-17.8 76.556-17.8 76.556 15.79 1.679 35.07-30.372 38.83-45.789 2.63-10.789 12.98-15.381 17.27-24.754" fill="#ffe6d9"/><path d="m1321.7 286.14c6.62-5.121 10.64-0.988 16.19 4.723 3.53 3.622 7.52 7.728 12.98 10.103 14.03 6.105 19.55 26.323 19.6 26.526 0.96 3.732-1.86 13.616-3.66 17.54-1.84 4.03-4.9 7.245-7.87 10.353-3.89 4.08-7.92 8.299-9.43 14.49-3.89 15.95-22.88 46.499-37.91 45.444-0.73-4.877-7.53-54.858 17.69-75.707 3.07-2.545 3.33-4.161 1.15-7.202-4.88-6.773-10.49-8.986-14.59-10.601-2.81-1.107-4.83-1.906-5.55-3.64-0.65-1.581-0.2-4.035 1.42-7.723 0.07-0.251 3.99-16.679 9.98-24.306zm5.65-3.318c-1.91 0-3.98 0.751-6.31 2.566l-0.09 0.084c-6.15 7.781-10.01 23.973-10.17 24.658-1.74 3.922-2.18 6.545-1.4 8.42 0.87 2.128 3.18 3.037 6.1 4.189 3.99 1.57 9.44 3.72 14.14 10.255 1.87 2.6 1.7 3.639-0.97 5.848-26.83 22.188-18.07 76.478-17.97 77.024l0.06 0.374 0.38 0.04c16.77 1.767 35.81-31.599 39.36-46.167 1.45-5.933 5.38-10.053 9.18-14.038 3.03-3.168 6.15-6.444 8.06-10.627 1.61-3.514 4.81-13.945 3.72-18.204-0.05-0.207-5.71-20.9-20.17-27.195-5.28-2.297-9.2-6.328-12.66-9.883-3.75-3.852-7.14-7.344-11.26-7.344" fill="#ffcbb2"/><path d="m1233.4 417.71c-4.33 4.649-2.03 10.485 7.73 8.583 0.66-0.13 1.3 0.353 1.3 1.029 0.03 2.174-7.23 8.458-3.78 9.002 8.34 1.313 22.59-23.662 27.21-23.662 5.71 0 8.58 12.341 11.97 16.516 1.25 1.532 11.71 13.62 15.31 8.554 1.95-2.753-0.04-5.274 0.95-8.513 0.95-3.137 3.44 3.091 6.17 0.549 3.6-3.34 3.08-9.555 0.01-13.383-10.15-12.633-55.25-11.146-66.87 1.325" fill="#ffe6d9"/><path d="m1237.7 426.15c-2.67 0-4.61-0.782-5.43-2.259-0.9-1.617-0.31-3.857 1.55-5.846 6-6.447 22.13-10.512 39.25-9.888 12.9 0.473 22.94 3.664 26.86 8.535 2.83 3.526 3.52 9.473 0.04 12.703-1.04 0.969-1.96 0.374-3.26-0.643-0.76-0.597-1.42-1.112-2.1-0.895-0.43 0.135-0.75 0.532-0.95 1.211-0.46 1.503-0.31 2.878-0.19 4.09 0.17 1.543 0.31 2.875-0.69 4.278-0.47 0.661-1.08 0.995-1.87 1.021-0.03 1e-3 -0.06 2e-3 -0.1 2e-3 -3.86 0-10.5-7.094-12.54-9.603-1.1-1.351-2.17-3.647-3.3-6.077-2.32-4.979-4.94-10.623-9.06-10.623-2.03 0-5.09 3.537-9.9 9.307-5.62 6.722-12.6 15.094-17.23 14.361-0.19-0.03-0.43-0.095-0.49-0.237-0.26-0.649 1.29-2.706 2.31-4.067 1.29-1.706 2.39-3.178 2.38-4.209 0-0.459-0.21-0.891-0.57-1.183-0.37-0.303-0.86-0.423-1.33-0.332-1.22 0.238-2.36 0.354-3.38 0.354zm32.21-19.049c-13.69-1e-3 -30.13 3.078-36.82 10.262-2.16 2.317-2.81 5.004-1.7 7.014 1.38 2.481 4.98 3.357 9.88 2.401 0.18-0.036 0.37 9e-3 0.51 0.125 0.07 0.061 0.2 0.197 0.2 0.418 0.01 0.691-1.15 2.235-2.18 3.597-1.56 2.077-2.91 3.871-2.43 5.044 0.19 0.462 0.61 0.748 1.26 0.85 5.2 0.815 12.07-7.432 18.14-14.708 3.68-4.399 7.47-8.948 9.14-8.948 3.48 0 5.96 5.337 8.16 10.045 1.15 2.488 2.25 4.838 3.42 6.286 0.09 0.102 8.35 10.138 13.46 9.969 1.1-0.036 1.99-0.521 2.65-1.441 1.21-1.711 1.04-3.363 0.87-4.962-0.12-1.172-0.25-2.385 0.15-3.695 0.15-0.498 0.29-0.547 0.29-0.548 0.19-0.048 0.81 0.434 1.18 0.728 1.12 0.881 2.81 2.217 4.56 0.59 3.89-3.609 3.17-10.185 0.06-14.062-4.16-5.171-14.22-8.418-27.61-8.908-1.04-0.038-2.11-0.057-3.19-0.057" fill="#ffcbb2"/><path d="m1185.2 263.18c5.04-0.504 11.31 0.105 13.84 1.633-0.41-17.891-0.63-8.463 1-14.858 0.93-3.624 6.75-16.405 4.28-19.05-1.87-2.001-4.11 3.914-5.78 7.399-2.3 4.832-8.88-4.562-1.21-15.137 0.75-1.044 4.92-5.897 1.69-8.63-3.56 2.962-6.49 6.658-8.57 10.788 2.28-7.038 1.31-11.895-0.33-11.536-2.91 0.637-6.62 25.595-2.32 37.592 0.51 1.419 0.29 1.443-2.6 11.799" fill="#ffa988"/><path d="m1314.4 293.46-12-4.291-5.38 12.877 12.59 5.626 4.79-14.212" fill="#ffa988"/><g fill="#ffcbb2"><path d="m1183.6 265.94c6.06-2.031 14.16-1.747 18.78 0 0.77-4.728 0.23-7.083-2.82-9.941-1.46-1.362-18.46-5.958-15.96 9.941"/><path d="m1306.1 289.61c0.98-1 6.74-0.601 11.91 1.546-2.25 3.178-5.18 13.278-7.09 20.615-1.2-0.514-7.67-5.698-9.36-7.059-1.06-0.853 1.41-11.942 4.54-15.102"/><path d="m1243.9 273.82c8.07 0 16.66-0.591 25.1-2.363 2.62-0.549 4.92-1.101 6.95-1.588 8.54-2.045 13.7-3.282 26.9-1.117 0.91 0.149 1.68 0.751 2.01 1.569 0.5 1.25 1.12 2.421 1.66 3.454 1.3 2.454 2.32 4.392 1.18 5.961-7.36 10.155-12.16 22.106-14.26 35.521-0.08 0.52-0.37 0.971-0.81 1.27-0.44 0.301-0.97 0.401-1.49 0.289-17.7-3.901-35.74-2.018-55.8 0.642-0.99 0.127-1.9-0.497-2.12-1.457-1.63-6.903-6.33-23.882-14.75-32.418-0.87-0.876-0.99-2.253-0.3-3.274 1.16-1.707 1.99-3.084 2.65-4.19 1.63-2.743 2.07-3.382 3.67-3.248 5.78 0.503 12.4 0.949 19.41 0.949zm46.98-7.209c-5.62 0-9.71 0.98-15.17 2.286-2.02 0.485-4.31 1.034-6.92 1.581-15.64 3.285-31.84 2.472-44.21 1.397-2.29-0.198-3.02 1.035-4.62 3.732-0.66 1.095-1.47 2.458-2.61 4.14-0.97 1.415-0.8 3.324 0.41 4.538 8.47 8.59 13.23 26.624 14.48 31.946 0.35 1.462 1.74 2.422 3.23 2.218 19.96-2.645 37.92-4.521 55.46-0.656 0.78 0.171 1.6 0.011 2.27-0.44 0.66-0.456 1.1-1.146 1.23-1.941 2.08-13.258 6.82-25.064 14.08-35.089 1.5-2.073 0.3-4.363-1.1-7.015-0.56-1.061-1.14-2.158-1.62-3.359-0.46-1.142-1.53-1.978-2.78-2.184-4.97-0.814-8.81-1.154-12.13-1.154"/><path d="m1267.1 410.13c-7.78 0-13.26 5.407-18.11 10.192-1.89 1.869-3.68 3.635-5.45 4.911-0.22 0.161-0.27 0.473-0.11 0.697 0.16 0.226 0.48 0.274 0.7 0.113 1.83-1.32 3.64-3.112 5.57-5.01 4.71-4.648 10.03-9.903 17.41-9.903 0.17 0 0.33 2e-3 0.5 7e-3 7.4 0.237 15.74 5.664 25.48 16.592 0.19 0.206 0.5 0.225 0.71 0.04 0.21-0.183 0.22-0.499 0.04-0.706-9.94-11.143-18.5-16.68-26.2-16.925-0.18-6e-3 -0.36-8e-3 -0.54-8e-3"/><path d="m1342.8 330.76c-0.16 0-0.31 0.076-0.41 0.218-3.35 4.923-6.32 6.642-9.33 5.406-0.62-0.253-0.92 0.105-0.99 0.221-0.87 1.277 3.27 8.041 6.62 11.49 0.19 0.199 0.51 0.202 0.71 0.011 0.19-0.193 0.2-0.509 0.01-0.707-3.4-3.497-6.15-8.517-6.46-9.987 4.53 1.606 8.02-2.562 10.27-5.871 0.15-0.229 0.09-0.54-0.14-0.695-0.08-0.059-0.18-0.086-0.28-0.086"/></g><g fill="#efbea9"><path d="m1302.6 361.16c-17.79-53.248-72.48-15.187-76.06 0-2.58 10.897 10.06 20.394 31.07 20.394 21 0 48.48-9.957 44.99-20.394"/><path d="m1257.6 381.1c-12.83 0-23.39-3.657-28.24-9.785-2.4-3.034-3.22-6.508-2.39-10.047 2.03-8.577 22.41-26.127 42.24-27.027 10.75-0.481 25.18 3.814 32.95 27.067 0.6 1.799 0.22 3.664-1.13 5.543-5.37 7.458-26.07 14.249-43.43 14.249zm13.18-47.808c-0.55 0-1.08 0.012-1.61 0.036-19.67 0.893-40.77 17.914-43.09 27.73-0.9 3.82-0.01 7.563 2.57 10.825 5.02 6.344 15.84 10.131 28.95 10.131 17.92 0 38.56-6.835 44.17-14.628 1.53-2.132 1.96-4.274 1.26-6.368-7.57-22.656-21.4-27.726-32.25-27.726"/><path d="m1261.2 407.77c-4.24 0-2.45 5.348-0.51 5.348 4.04 0 3.21-5.348 0.51-5.348"/><path d="m1260.7 412.66c-0.76 0-1.63-1.391-1.63-2.612 0-0.367 0.08-0.884 0.45-1.267 0.36-0.368 0.93-0.555 1.69-0.555 1.12 0 1.82 1.202 1.82 2.315 0 0.579-0.19 1.1-0.53 1.465-0.41 0.434-1.01 0.654-1.8 0.654zm0.51-5.348c-1.02 0-1.8 0.28-2.34 0.83-0.47 0.477-0.72 1.137-0.72 1.906 0 1.597 1.14 3.527 2.55 3.527 1.04 0 1.89-0.327 2.47-0.945 0.5-0.535 0.77-1.277 0.77-2.089 0-1.553-1.04-3.229-2.73-3.229"/><path d="m1273.4 408.62c4.24 0 2.45 5.348 0.51 5.348-4.05 0-3.21-5.348-0.51-5.348"/><path d="m1273.9 413.51c-0.79 0-1.39-0.22-1.8-0.654-0.34-0.366-0.53-0.886-0.53-1.465 0-1.113 0.7-2.315 1.82-2.315 0.76 0 1.33 0.186 1.69 0.554 0.37 0.383 0.45 0.901 0.45 1.268 0 1.22-0.87 2.612-1.63 2.612zm-0.51-5.348c-1.69 0-2.73 1.676-2.73 3.229 0 0.812 0.27 1.554 0.77 2.089 0.58 0.617 1.43 0.944 2.47 0.944 1.41 0 2.55-1.929 2.55-3.526 0-0.77-0.25-1.429-0.72-1.907-0.54-0.55-1.32-0.829-2.34-0.829"/></g><path d="m1261.8 404.46c-2.73-5.902-2.07-41.579-4.2-22.901-1.21 10.566-0.69 12.943-0.33 14.711 3.25 16.023 0.5 17.274 5.17 14.941 1.18-0.586 0.96-3.277-0.64-6.751" fill="#fffffb"/><path d="m1272.9 405.15c2.72-5.901 2.07-41.578 4.2-22.9 1.2 10.566 0.69 12.943 0.33 14.711-3.25 16.023-0.5 17.274-5.18 14.94-1.17-0.585-0.95-3.276 0.65-6.751" fill="#fffffb"/></g></g></svg>
